<svg width="16" height="16" viewBox="0 0 16 16" fill="none" xmlns="http://www.w3.org/2000/svg">
<path d="M10.5714 6C10.651 6 10.729 6.02069 10.7967 6.05974C10.8644 6.09879 10.9192 6.15467 10.9548 6.22111C10.9903 6.28756 11.0054 6.36194 10.9983 6.43592C10.9911 6.50991 10.962 6.58057 10.9143 6.64L8.34286 9.84C8.30294 9.88968 8.25117 9.93 8.19166 9.95777C8.13215 9.98554 8.06653 10 8 10C7.93347 10 7.86785 9.98554 7.80834 9.95777C7.74883 9.93 7.69706 9.88968 7.65714 9.84L5.08572 6.64C5.03796 6.58057 5.00888 6.50991 5.00173 6.43592C4.99458 6.36194 5.00965 6.28756 5.04525 6.22112C5.08084 6.15467 5.13555 6.09879 5.20326 6.05974C5.27096 6.02069 5.34898 6 5.42857 6L10.5714 6Z" fill="currentColor"/>
</svg>
