<svg width="20" height="20" viewBox="0 0 20 20" fill="none" xmlns="http://www.w3.org/2000/svg">
<mask id="mask0_2002_73" style="mask-type:alpha" maskUnits="userSpaceOnUse" x="0" y="0" width="20" height="20">
<rect width="20" height="20" fill="#D9D9D9"/>
</mask>
<g mask="url(#mask0_2002_73)">
<path d="M9.92874 4.69516L9.95812 4.725H10H16.4C16.8128 4.725 17.1639 4.87304 17.4587 5.1725C17.7536 5.47201 17.9 5.82936 17.9 6.25V14.375C17.9 14.7956 17.7536 15.153 17.4587 15.4525C17.1639 15.752 16.8128 15.9 16.4 15.9H3.6C3.18724 15.9 2.83611 15.752 2.54126 15.4525C2.24636 15.153 2.1 14.7956 2.1 14.375V4.625C2.1 4.20436 2.24636 3.84701 2.54126 3.5475C2.83611 3.24804 3.18724 3.1 3.6 3.1H8.35812L9.92874 4.69516ZM3.5 14.375V14.475H3.6H16.4H16.5V14.375V6.25V6.15H16.4H9.38188L7.81126 4.55484L7.78188 4.525H7.74H3.6H3.5V4.625V14.375Z" fill="#404040" stroke="white" stroke-width="0.2"/>
</g>
</svg>
