<svg width="10" height="10" viewBox="0 -1 14 14" fill="none" xmlns="http://www.w3.org/2000/svg">
<path d="M10.8446 4.84973L10.856 4.82715L10.8446 4.80456C10.3859 3.89853 9.72269 3.17828 8.85576 2.64457C7.98864 2.11074 7.03635 1.84382 6 1.84382C4.96365 1.84382 4.01137 2.11074 3.14424 2.64457C2.27731 3.17828 1.61412 3.89853 1.15539 4.80456L1.14396 4.82715L1.15539 4.84973C1.61412 5.75577 2.27731 6.47601 3.14424 7.00973C4.01137 7.54356 4.96365 7.81048 6 7.81048C7.03635 7.81048 7.98864 7.54356 8.85576 7.00973C9.72269 6.47601 10.3859 5.75577 10.8446 4.84973ZM7.70368 6.4914C7.23597 6.94871 6.66906 7.17715 6 7.17715C5.33094 7.17715 4.76403 6.94871 4.29632 6.4914C3.82865 6.03413 3.59545 5.48034 3.59545 4.82715C3.59545 4.17396 3.82865 3.62017 4.29632 3.1629C4.76403 2.70558 5.33094 2.47715 6 2.47715C6.66906 2.47715 7.23597 2.70558 7.70368 3.1629C8.17135 3.62017 8.40455 4.17396 8.40455 4.82715C8.40455 5.48034 8.17135 6.03413 7.70368 6.4914ZM4.92186 5.8829C5.21779 6.17225 5.57816 6.31715 6 6.31715C6.42184 6.31715 6.78221 6.17225 7.07814 5.8829C7.37411 5.59351 7.52273 5.24062 7.52273 4.82715C7.52273 4.41367 7.37411 4.06079 7.07814 3.7714C6.78221 3.48205 6.42184 3.33715 6 3.33715C5.57816 3.33715 5.21779 3.48205 4.92186 3.7714C4.62589 4.06079 4.47727 4.41367 4.47727 4.82715C4.47727 5.24062 4.62589 5.59351 4.92186 5.8829ZM6 8.77715C4.68243 8.77715 3.48298 8.41775 2.40039 7.69883C1.3235 6.9837 0.541624 6.02683 0.0539414 4.82715C0.541624 3.62747 1.3235 2.6706 2.40039 1.95547C3.48298 1.23654 4.68243 0.877148 6 0.877148C7.31757 0.877148 8.51702 1.23654 9.59961 1.95547C10.6765 2.6706 11.4584 3.62747 11.9461 4.82715C11.4584 6.02683 10.6765 6.9837 9.59961 7.69883C8.51702 8.41775 7.31757 8.77715 6 8.77715Z" fill="#BBBBBB" stroke="white" stroke-width="0.1"/>
</svg>
