<svg width="14" height="14" viewBox="0 3 15 15" fill="none" xmlns="http://www.w3.org/2000/svg">
  <mask id="mask0_2116_4644" style="mask-type:alpha" maskUnits="userSpaceOnUse" x="0" y="0" width="14" height="14">
    <rect y="0.827148" width="14" height="14" fill="#D9D9D9"/>
  </mask>
  <g mask="url(#mask0_2116_4644)">
    <path d="M11.2708 10.5184C11.5982 10.2823 11.8907 10.0249 12.1481 9.74617C12.4195 9.45229 12.6516 9.11815 12.8444 8.744L12.8565 8.72066L12.8441 8.69751C12.3851 7.83905 11.7263 7.15688 10.8686 6.65149C10.0104 6.14585 9.05383 5.89331 8 5.89331C7.73423 5.89331 7.47295 5.91028 7.21617 5.94425C6.96867 5.97698 6.7254 6.02551 6.48636 6.08981L5.7206 5.38077C6.06649 5.2529 6.42019 5.15589 6.78173 5.08972C7.16946 5.01875 7.57552 4.98321 8 4.98321C9.36371 4.98321 10.5768 5.33218 11.6408 6.02932C12.6995 6.723 13.4673 7.6202 13.9456 8.7213C13.7394 9.20614 13.4695 9.65647 13.136 10.0724C12.8062 10.4836 12.4227 10.8452 11.9854 11.1572L11.2708 10.5184ZM2.98182 4.39529L12.9446 13.6201L12.2543 14.2592L9.99739 12.1943L9.97665 12.1753L9.94967 12.1832C9.6337 12.2751 9.31554 12.3441 8.99517 12.39C8.67493 12.436 8.34322 12.459 8 12.459C6.63629 12.459 5.42322 12.11 4.35922 11.4129C3.30056 10.7192 2.5328 9.82206 2.05445 8.72103C2.2424 8.28614 2.47842 7.8817 2.76254 7.50764C3.05105 7.12781 3.38009 6.78767 3.74972 6.48716L3.79402 6.45114L3.75248 6.41198L2.29142 5.03455L2.98182 4.39529ZM4.51535 7.11834L4.48321 7.08929L4.44988 7.11696C4.18393 7.33774 3.94087 7.57977 3.72073 7.84306C3.50015 8.10688 3.31171 8.392 3.15546 8.69837L3.14359 8.72163L3.15591 8.74466C3.61489 9.60312 4.27372 10.2853 5.13144 10.7907C5.98959 11.2963 6.94617 11.5489 8 11.5489C8.18375 11.5489 8.36304 11.5382 8.53787 11.5169C8.71089 11.4959 8.88843 11.4727 9.07051 11.4474L9.17149 11.4334L9.09858 11.3621L8.60768 10.8823L8.58764 10.8627L8.56049 10.8696C8.46204 10.8944 8.36838 10.913 8.27949 10.9254C8.19105 10.9376 8.0979 10.9438 8 10.9438C7.33011 10.9438 6.76289 10.7272 6.29533 10.2942C5.82793 9.86147 5.59545 9.338 5.59545 8.72109C5.59545 8.63095 5.60209 8.54525 5.61527 8.46393C5.62853 8.38208 5.64848 8.29575 5.67524 8.20491L5.68412 8.17477L5.6608 8.15369L4.51535 7.11834ZM10.3515 9.18259C10.3211 9.30563 10.2776 9.42736 10.221 9.54781L9.49987 8.8801C9.57421 8.476 9.44225 8.09896 9.11355 7.75234C8.7789 7.39944 8.34734 7.25959 7.82564 7.32989L7.10922 6.66653C7.23768 6.61515 7.3676 6.57559 7.49899 6.54778C7.6543 6.51491 7.82126 6.49836 8 6.49836C8.66989 6.49836 9.23711 6.71501 9.70467 7.14793C10.1721 7.58071 10.4045 8.10417 10.4045 8.72109C10.4045 8.88583 10.3868 9.03961 10.3515 9.18259Z" fill="#BBBBBB" stroke="white" stroke-width="0.1"/>
  </g>
</svg>
