<svg width="20" height="20" viewBox="0 0 20 20" fill="none" xmlns="http://www.w3.org/2000/svg">
    <path d="M18.1569 10.1874C18.1569 9.63883 18.1083 9.118 18.025 8.61108H10.1777V11.743H14.6708C14.4694 12.7708 13.8792 13.6388 13.0042 14.2291V16.3124H15.6847C17.2542 14.8611 18.1569 12.7222 18.1569 10.1874Z"
          fill="#4285F4"></path>
    <path d="M10.1777 18.3334C12.4277 18.3334 14.3097 17.5834 15.6847 16.3126L13.0042 14.2292C12.2542 14.7292 11.3027 15.0348 10.1777 15.0348C8.00413 15.0348 6.16385 13.5695 5.50413 11.5903H2.74023V13.7362C4.10829 16.4584 6.92079 18.3334 10.1777 18.3334Z"
          fill="#34A853"></path>
    <path d="M5.50347 11.5903C5.32987 11.0903 5.23958 10.5556 5.23958 10.0001C5.23958 9.44448 5.33681 8.90973 5.50347 8.40973V6.26392H2.73958C2.17014 7.38892 1.84375 8.65282 1.84375 10.0001C1.84375 11.3472 2.17014 12.6111 2.73958 13.7361L5.50347 11.5903Z"
          fill="#FBBC05"></path>
    <path d="M10.1777 4.96536C11.4069 4.96536 12.5042 5.38897 13.3722 6.21536L15.7472 3.84036C14.3097 2.49314 12.4277 1.66675 10.1777 1.66675C6.92079 1.66675 4.10829 3.54175 2.74023 6.26397L5.50413 8.40983C6.16385 6.43064 8.00413 4.96536 10.1777 4.96536Z"
          fill="#EA4335"></path>
</svg>