<svg width="20" height="20" viewBox="0 0 20 20" fill="none" xmlns="http://www.w3.org/2000/svg">
<path d="M5.69614 11.2333H5.69565C5.2923 11.2333 4.94946 11.0894 4.66173 10.7983C4.37396 10.5072 4.23092 10.1596 4.23043 9.74988C4.22994 9.34039 4.37288 8.99317 4.66155 8.70265C4.95046 8.41188 5.29351 8.26766 5.6959 8.26667C6.09789 8.26568 6.44096 8.40972 6.73036 8.70247C7.01979 8.99525 7.16234 9.34253 7.16087 9.74964C7.1594 10.1573 7.01658 10.5053 6.72994 10.7987C6.44401 11.0915 6.10132 11.2353 5.69614 11.2333ZM9.6789 7.4255L9.70787 7.475H9.76522H16.6104L18.8594 9.75L15.4688 13.1798L13.9735 12.0453L13.913 11.9995L13.8526 12.0453L12.346 13.1883L10.7429 12.0436L10.7168 12.025H10.6848H9.76522H9.7079L9.67893 12.0745C9.26994 12.7726 8.71769 13.3347 8.02097 13.7616C7.32688 14.1869 6.5526 14.4 5.69565 14.4C4.4179 14.4 3.33485 13.9488 2.44068 13.0443C1.54647 12.1397 1.1 11.0436 1.1 9.75C1.1 8.45641 1.54647 7.36028 2.44068 6.45572C3.33485 5.5512 4.4179 5.1 5.69565 5.1C6.55206 5.1 7.32636 5.31309 8.021 5.73841C8.71822 6.16531 9.27045 6.72738 9.6789 7.4255ZM12.2505 11.4345L12.3102 11.4771L12.3688 11.433L13.9118 10.2719L15.2405 11.3131L15.3106 11.3681L15.3733 11.3047L16.8407 9.8203L16.9102 9.75L16.8407 9.6797L16.0581 8.88803L16.0287 8.85833H15.987H8.80429C8.60978 8.18482 8.23651 7.62413 7.68614 7.17853C7.11377 6.71511 6.44889 6.48333 5.69565 6.48333C4.80767 6.48333 4.04522 6.80437 3.41367 7.44324C2.78215 8.08207 2.46522 8.8528 2.46522 9.75C2.46522 10.6472 2.78215 11.4179 3.41367 12.0568C4.04522 12.6956 4.80767 13.0167 5.69565 13.0167C6.44838 13.0167 7.11324 12.7849 7.68611 12.3215C8.23698 11.8759 8.61029 11.3152 8.80434 10.6417H11.1418L12.2505 11.4345Z" fill="#404040" stroke="#F7F7F7" stroke-width="0.2"/>
</svg>
