<svg width="54" height="23" viewBox="0 0 54 23" fill="none" xmlns="http://www.w3.org/2000/svg">
<path d="M8.54473 22.3C5.88473 22.3 3.87473 21.67 2.51473 20.41C1.17473 19.15 0.434727 17.38 0.294727 15.1H4.13473C4.23473 16.42 4.63473 17.4 5.33473 18.04C6.03473 18.68 7.10473 19 8.54473 19C9.92473 19 10.9147 18.75 11.5147 18.25C12.1147 17.75 12.4147 17.08 12.4147 16.24C12.4147 15.46 12.1247 14.87 11.5447 14.47C10.9647 14.07 10.2347 13.74 9.35473 13.48C8.47473 13.2 7.52473 12.94 6.50473 12.7C5.48473 12.44 4.53473 12.08 3.65473 11.62C2.77473 11.16 2.04473 10.54 1.46473 9.76C0.884727 8.98 0.594727 7.92 0.594727 6.58C0.594727 5.74 0.754727 4.97 1.07473 4.27C1.39473 3.55 1.86473 2.93 2.48473 2.41C3.12473 1.87 3.90473 1.45 4.82473 1.15C5.76473 0.849999 6.85473 0.699999 8.09473 0.699999C10.6747 0.699999 12.6047 1.3 13.8847 2.5C15.1647 3.7 15.8847 5.4 16.0447 7.6H12.2047C12.1047 6.4 11.7347 5.5 11.0947 4.9C10.4547 4.3 9.45473 4 8.09473 4C6.77473 4 5.82473 4.25 5.24473 4.75C4.66473 5.23 4.37473 5.85 4.37473 6.61C4.37473 7.43 4.66473 8.05 5.24473 8.47C5.82473 8.87 6.55473 9.2 7.43473 9.46C8.31473 9.72 9.26473 9.97 10.2847 10.21C11.3047 10.43 12.2547 10.76 13.1347 11.2C14.0147 11.64 14.7447 12.26 15.3247 13.06C15.9047 13.84 16.1947 14.91 16.1947 16.27C16.1947 17.15 16.0347 17.96 15.7147 18.7C15.4147 19.44 14.9447 20.08 14.3047 20.62C13.6647 21.14 12.8647 21.55 11.9047 21.85C10.9447 22.15 9.82473 22.3 8.54473 22.3ZM19.5053 0.999999H33.0053V4.3H23.1053V9.55H31.2053V12.85H23.1053V18.7H33.0053V22H19.5053V0.999999ZM44.2564 22.3C42.8364 22.3 41.5564 22.08 40.4164 21.64C39.2764 21.18 38.2964 20.52 37.4764 19.66C36.6764 18.78 36.0564 17.7 35.6164 16.42C35.1764 15.12 34.9564 13.64 34.9564 11.98V10.72C34.9564 9.14 35.1764 7.73 35.6164 6.49C36.0564 5.25 36.6764 4.2 37.4764 3.34C38.2964 2.48 39.2764 1.83 40.4164 1.39C41.5764 0.929999 42.8564 0.699999 44.2564 0.699999C45.6564 0.699999 46.9264 0.929999 48.0664 1.39C49.2264 1.83 50.2064 2.48 51.0064 3.34C51.8264 4.18 52.4564 5.23 52.8964 6.49C53.3364 7.73 53.5564 9.14 53.5564 10.72V11.98C53.5564 13.64 53.3364 15.11 52.8964 16.39C52.4564 17.67 51.8264 18.75 51.0064 19.63C50.2064 20.51 49.2264 21.18 48.0664 21.64C46.9264 22.08 45.6564 22.3 44.2564 22.3ZM44.2564 19C45.9164 19 47.2464 18.44 48.2464 17.32C49.2664 16.2 49.7764 14.42 49.7764 11.98V10.72C49.7764 8.48 49.2664 6.8 48.2464 5.68C47.2264 4.56 45.8964 4 44.2564 4C42.5764 4 41.2364 4.55 40.2364 5.65C39.2364 6.75 38.7364 8.44 38.7364 10.72V11.98C38.7364 14.38 39.2364 16.15 40.2364 17.29C41.2564 18.43 42.5964 19 44.2564 19Z" fill="#404040"/>
</svg>
