<svg width="20" height="20" viewBox="0 0 20 20" fill="none" xmlns="http://www.w3.org/2000/svg">
<mask id="mask0_2002_381" style="mask-type:alpha" maskUnits="userSpaceOnUse" x="0" y="0" width="20" height="20">
<rect width="20" height="20" fill="#D9D9D9"/>
</mask>
<g mask="url(#mask0_2002_381)">
<path d="M15.1381 10.8478L15.3046 10.6778H15.0667H5.90952V9.32222H15.0667H15.3046L15.1381 9.15224L14.0245 8.01545L14.9536 7.03308L17.86 10L14.9536 12.9669L14.0245 11.9845L15.1381 10.8478ZM11.2429 15.4444V12.4333H12.5667V15.4444C12.5667 15.8462 12.4277 16.1872 12.1476 16.4731C11.8676 16.7589 11.5345 16.9 11.1429 16.9H3.52381C3.13217 16.9 2.79903 16.7589 2.51905 16.4731C2.23902 16.1872 2.1 15.8462 2.1 15.4444V4.55556C2.1 4.15385 2.23902 3.8128 2.51905 3.52692C2.79903 3.24111 3.13217 3.1 3.52381 3.1H11.1429C11.5345 3.1 11.8676 3.24111 12.1476 3.52692C12.4277 3.8128 12.5667 4.15385 12.5667 4.55556V7.56667H11.2429V4.55556V4.45556H11.1429H3.52381H3.42381V4.55556V15.4444V15.5444H3.52381H11.1429H11.2429V15.4444Z" fill="#E50C00" stroke="white" stroke-width="0.2"/>
</g>
</svg>
