<svg width="16" height="23" viewBox="0 0 16 23" fill="none" xmlns="http://www.w3.org/2000/svg">
<path d="M8.29473 22.3C5.63473 22.3 3.62473 21.67 2.26473 20.41C0.924727 19.15 0.184727 17.38 0.0447266 15.1H3.88473C3.98473 16.42 4.38473 17.4 5.08473 18.04C5.78473 18.68 6.85473 19 8.29473 19C9.67473 19 10.6647 18.75 11.2647 18.25C11.8647 17.75 12.1647 17.08 12.1647 16.24C12.1647 15.46 11.8747 14.87 11.2947 14.47C10.7147 14.07 9.98473 13.74 9.10473 13.48C8.22473 13.2 7.27473 12.94 6.25473 12.7C5.23473 12.44 4.28473 12.08 3.40473 11.62C2.52473 11.16 1.79473 10.54 1.21473 9.76C0.634727 8.98 0.344727 7.92 0.344727 6.58C0.344727 5.74 0.504727 4.97 0.824727 4.27C1.14473 3.55 1.61473 2.93 2.23473 2.41C2.87473 1.87 3.65473 1.45 4.57473 1.15C5.51473 0.849999 6.60473 0.699999 7.84473 0.699999C10.4247 0.699999 12.3547 1.3 13.6347 2.5C14.9147 3.7 15.6347 5.4 15.7947 7.6H11.9547C11.8547 6.4 11.4847 5.5 10.8447 4.9C10.2047 4.3 9.20473 4 7.84473 4C6.52473 4 5.57473 4.25 4.99473 4.75C4.41473 5.23 4.12473 5.85 4.12473 6.61C4.12473 7.43 4.41473 8.05 4.99473 8.47C5.57473 8.87 6.30473 9.2 7.18473 9.46C8.06473 9.72 9.01473 9.97 10.0347 10.21C11.0547 10.43 12.0047 10.76 12.8847 11.2C13.7647 11.64 14.4947 12.26 15.0747 13.06C15.6547 13.84 15.9447 14.91 15.9447 16.27C15.9447 17.15 15.7847 17.96 15.4647 18.7C15.1647 19.44 14.6947 20.08 14.0547 20.62C13.4147 21.14 12.6147 21.55 11.6547 21.85C10.6947 22.15 9.57473 22.3 8.29473 22.3Z" fill="#404040"/>
</svg>
