<svg width="24" height="24" viewBox="0 0 24 24" fill="none" xmlns="http://www.w3.org/2000/svg">
<path d="M22.6983 11.8753H20.0001H19.8751V12.0003C19.8751 16.3513 16.3511 19.8753 12.0001 19.8753C10.511 19.8753 9.12255 19.4549 7.93996 18.7372L9.22308 17.4541C10.0523 17.8864 11.0027 18.1253 12.0001 18.1253C15.3791 18.1253 18.1251 15.3793 18.1251 12.0003V11.8753H18.0001H15.3019L19.0001 8.17708L22.6983 11.8753ZM5.87509 12.0003V12.1253H6.00009H8.69831L5.00009 15.8235L1.30187 12.1253H4.00009H4.12509V12.0003C4.12509 7.64934 7.64913 4.12531 12.0001 4.12531C13.4891 4.12531 14.8776 4.54566 16.0602 5.2634L14.7771 6.54652C13.9479 6.11422 12.9975 5.8753 12.0001 5.8753C8.62106 5.8753 5.87509 8.62127 5.87509 12.0003Z" fill="#0076F5" stroke="#F2F8FE" stroke-width="0.25"/>
</svg>
