<svg width="20" height="20" viewBox="0 0 20 20" fill="none" xmlns="http://www.w3.org/2000/svg">
<mask id="path-1-inside-1_2002_372" fill="white">
<path d="M9.9993 7.33304C9.26145 7.33304 8.55381 7.61408 8.03206 8.11435C7.51032 8.61461 7.2172 9.29312 7.2172 10.0006C7.2172 10.7081 7.51032 11.3866 8.03206 11.8868C8.55381 12.3871 9.26145 12.6682 9.9993 12.6682C10.7372 12.6682 11.4448 12.3871 11.9665 11.8868C12.4883 11.3866 12.7814 10.7081 12.7814 10.0006C12.7814 9.29312 12.4883 8.61461 11.9665 8.11435C11.4448 7.61408 10.7372 7.33304 9.9993 7.33304ZM8.60825 10.0006C8.60825 9.64686 8.75481 9.3076 9.01568 9.05747C9.27656 8.80734 9.63037 8.66682 9.9993 8.66682C10.3682 8.66682 10.7221 8.80734 10.9829 9.05747C11.2438 9.3076 11.3904 9.64686 11.3904 10.0006C11.3904 10.3543 11.2438 10.6936 10.9829 10.9437C10.7221 11.1939 10.3682 11.3344 9.9993 11.3344C9.63037 11.3344 9.27656 11.1939 9.01568 10.9437C8.75481 10.6936 8.60825 10.3543 8.60825 10.0006ZM13.6411 5.19633C13.3846 5.24078 13.1202 5.18624 12.9055 5.04458C12.6908 4.90292 12.5432 4.68564 12.4948 4.44007L12.1332 2.55144C12.1161 2.45918 12.0705 2.37397 12.0023 2.30689C11.9341 2.23981 11.8464 2.19396 11.7506 2.17532C10.5953 1.94156 9.40188 1.94156 8.24658 2.17532C8.15082 2.19396 8.06312 2.23981 7.99489 2.30689C7.92667 2.37397 7.88107 2.45918 7.86404 2.55144L7.50376 4.44007C7.47745 4.57459 7.42105 4.70203 7.33844 4.81364C7.25582 4.92524 7.14896 5.01835 7.02521 5.08655C6.90146 5.15475 6.76377 5.19642 6.62161 5.2087C6.47945 5.22097 6.3362 5.20355 6.20174 5.15765L4.3113 4.5121C4.21946 4.48147 4.12031 4.47715 4.02595 4.49965C3.93159 4.52215 3.8461 4.5705 3.77992 4.63881C2.98795 5.47527 2.38966 6.46303 2.02441 7.53711C1.99393 7.62591 1.99195 7.72144 2.01873 7.81133C2.04552 7.90122 2.09984 7.98132 2.17465 8.04128L3.70759 9.28302C3.74932 9.31592 3.78688 9.35194 3.82026 9.39106C3.90407 9.48515 3.96766 9.59419 4.00738 9.71192C4.04709 9.82965 4.06214 9.95375 4.05167 10.0771C4.0412 10.2004 4.00541 10.3205 3.94636 10.4306C3.88731 10.5406 3.80616 10.6383 3.70759 10.7182L2.17465 11.9599C2.09984 12.0199 2.04552 12.1 2.01873 12.1899C1.99195 12.2798 1.99393 12.3753 2.02441 12.4641C2.39008 13.5383 2.98884 14.5261 3.78131 15.3624C3.84749 15.4307 3.93298 15.479 4.02734 15.5015C4.1217 15.524 4.22085 15.5197 4.31269 15.4891L6.20452 14.8435C6.33896 14.7972 6.48233 14.7794 6.62465 14.7914C6.76698 14.8035 6.90487 14.8451 7.02875 14.9134C7.15262 14.9817 7.25952 15.075 7.34203 15.1868C7.42454 15.2987 7.48067 15.4264 7.50654 15.5611L7.86543 17.4498C7.9016 17.6365 8.05323 17.7859 8.24797 17.8245C9.40372 18.0585 10.5977 18.0585 11.7534 17.8245C11.8487 17.8057 11.936 17.76 12.0039 17.6932C12.0719 17.6264 12.1174 17.5416 12.1346 17.4498L12.4962 15.5611C12.5225 15.4266 12.5789 15.2992 12.6616 15.1876C12.7442 15.076 12.851 14.9828 12.9748 14.9146C13.0985 14.8464 13.2362 14.8048 13.3784 14.7925C13.5206 14.7802 13.6638 14.7976 13.7983 14.8435L15.6887 15.4891C15.8765 15.5531 16.0865 15.5024 16.2201 15.3624C17.012 14.5259 17.6103 13.5382 17.9756 12.4641C18.0061 12.3753 18.0081 12.2798 17.9813 12.1899C17.9545 12.1 17.9002 12.0199 17.8254 11.9599L16.2924 10.7182C16.1833 10.6302 16.0955 10.5203 16.0354 10.3964C15.9752 10.2724 15.944 10.1373 15.944 10.0006C15.944 9.86386 15.9752 9.72878 16.0354 9.60483C16.0955 9.48087 16.1833 9.37104 16.2924 9.28302L17.8254 8.04128C17.9002 7.98132 17.9545 7.90122 17.9813 7.81133C18.0081 7.72144 18.0061 7.62591 17.9756 7.53711C17.6095 6.4628 17.0103 5.47502 16.2173 4.63881C16.1511 4.5705 16.0656 4.52215 15.9713 4.49965C15.8769 4.47715 15.7778 4.48147 15.6859 4.5121L13.7941 5.15765C13.7435 5.17381 13.6919 5.18717 13.6397 5.19766M4.43093 5.97125L5.73434 6.4154C6.05867 6.52611 6.40419 6.568 6.74704 6.53817C7.08989 6.50835 7.42191 6.40753 7.72016 6.24267C8.0184 6.07781 8.27578 5.85284 8.4745 5.5833C8.67322 5.31376 8.80856 5.00607 8.87116 4.68149L9.11738 3.38772C9.70157 3.31629 10.2929 3.31629 10.8771 3.38772L11.1247 4.68149C11.1868 5.00629 11.3219 5.31426 11.5205 5.58404C11.7191 5.85383 11.9765 6.07899 12.2749 6.24392C12.5733 6.40885 12.9055 6.50961 13.2485 6.53922C13.5915 6.56883 13.9372 6.52658 14.2615 6.4154L15.5635 5.96858C15.9196 6.41584 16.2117 6.89778 16.4399 7.4144L15.391 8.26402C15.1275 8.47736 14.9157 8.74329 14.7704 9.04322C14.6251 9.34316 14.5498 9.66989 14.5498 10.0006C14.5498 10.3313 14.6251 10.658 14.7704 10.958C14.9157 11.2579 15.1275 11.5238 15.391 11.7372L16.4413 12.5868C16.2136 13.1021 15.9191 13.5878 15.5649 14.0326L14.2615 13.5871C13.9372 13.4764 13.5916 13.4345 13.2488 13.4644C12.9059 13.4942 12.5739 13.595 12.2757 13.7599C11.9774 13.9247 11.72 14.1497 11.5213 14.4192C11.3226 14.6888 11.1873 14.9965 11.1247 15.321L10.8771 16.6148C10.2929 16.6862 9.70157 16.6862 9.11738 16.6148L8.87116 15.321C8.809 14.9962 8.67393 14.6883 8.47532 14.4185C8.2767 14.1487 8.01929 13.9235 7.72091 13.7586C7.42253 13.5937 7.09033 13.4929 6.7473 13.4633C6.40428 13.4337 6.05865 13.4759 5.73434 13.5871L4.4351 14.0326C4.08087 13.5878 3.78644 13.1021 3.55874 12.5868L4.60759 11.7358C4.8709 11.5225 5.08249 11.2566 5.22764 10.9568C5.37278 10.657 5.44797 10.3305 5.44797 9.99993C5.44797 9.66939 5.37278 9.34284 5.22764 9.04303C5.08249 8.74321 4.8709 8.47737 4.60759 8.26402L3.55735 7.4144C3.78734 6.89778 4.07946 6.41584 4.43371 5.96858"/>
</mask>
<path d="M9.9993 7.33304C9.26145 7.33304 8.55381 7.61408 8.03206 8.11435C7.51032 8.61461 7.2172 9.29312 7.2172 10.0006C7.2172 10.7081 7.51032 11.3866 8.03206 11.8868C8.55381 12.3871 9.26145 12.6682 9.9993 12.6682C10.7372 12.6682 11.4448 12.3871 11.9665 11.8868C12.4883 11.3866 12.7814 10.7081 12.7814 10.0006C12.7814 9.29312 12.4883 8.61461 11.9665 8.11435C11.4448 7.61408 10.7372 7.33304 9.9993 7.33304ZM8.60825 10.0006C8.60825 9.64686 8.75481 9.3076 9.01568 9.05747C9.27656 8.80734 9.63037 8.66682 9.9993 8.66682C10.3682 8.66682 10.7221 8.80734 10.9829 9.05747C11.2438 9.3076 11.3904 9.64686 11.3904 10.0006C11.3904 10.3543 11.2438 10.6936 10.9829 10.9437C10.7221 11.1939 10.3682 11.3344 9.9993 11.3344C9.63037 11.3344 9.27656 11.1939 9.01568 10.9437C8.75481 10.6936 8.60825 10.3543 8.60825 10.0006ZM13.6411 5.19633C13.3846 5.24078 13.1202 5.18624 12.9055 5.04458C12.6908 4.90292 12.5432 4.68564 12.4948 4.44007L12.1332 2.55144C12.1161 2.45918 12.0705 2.37397 12.0023 2.30689C11.9341 2.23981 11.8464 2.19396 11.7506 2.17532C10.5953 1.94156 9.40188 1.94156 8.24658 2.17532C8.15082 2.19396 8.06312 2.23981 7.99489 2.30689C7.92667 2.37397 7.88107 2.45918 7.86404 2.55144L7.50376 4.44007C7.47745 4.57459 7.42105 4.70203 7.33844 4.81364C7.25582 4.92524 7.14896 5.01835 7.02521 5.08655C6.90146 5.15475 6.76377 5.19642 6.62161 5.2087C6.47945 5.22097 6.3362 5.20355 6.20174 5.15765L4.3113 4.5121C4.21946 4.48147 4.12031 4.47715 4.02595 4.49965C3.93159 4.52215 3.8461 4.5705 3.77992 4.63881C2.98795 5.47527 2.38966 6.46303 2.02441 7.53711C1.99393 7.62591 1.99195 7.72144 2.01873 7.81133C2.04552 7.90122 2.09984 7.98132 2.17465 8.04128L3.70759 9.28302C3.74932 9.31592 3.78688 9.35194 3.82026 9.39106C3.90407 9.48515 3.96766 9.59419 4.00738 9.71192C4.04709 9.82965 4.06214 9.95375 4.05167 10.0771C4.0412 10.2004 4.00541 10.3205 3.94636 10.4306C3.88731 10.5406 3.80616 10.6383 3.70759 10.7182L2.17465 11.9599C2.09984 12.0199 2.04552 12.1 2.01873 12.1899C1.99195 12.2798 1.99393 12.3753 2.02441 12.4641C2.39008 13.5383 2.98884 14.5261 3.78131 15.3624C3.84749 15.4307 3.93298 15.479 4.02734 15.5015C4.1217 15.524 4.22085 15.5197 4.31269 15.4891L6.20452 14.8435C6.33896 14.7972 6.48233 14.7794 6.62465 14.7914C6.76698 14.8035 6.90487 14.8451 7.02875 14.9134C7.15262 14.9817 7.25952 15.075 7.34203 15.1868C7.42454 15.2987 7.48067 15.4264 7.50654 15.5611L7.86543 17.4498C7.9016 17.6365 8.05323 17.7859 8.24797 17.8245C9.40372 18.0585 10.5977 18.0585 11.7534 17.8245C11.8487 17.8057 11.936 17.76 12.0039 17.6932C12.0719 17.6264 12.1174 17.5416 12.1346 17.4498L12.4962 15.5611C12.5225 15.4266 12.5789 15.2992 12.6616 15.1876C12.7442 15.076 12.851 14.9828 12.9748 14.9146C13.0985 14.8464 13.2362 14.8048 13.3784 14.7925C13.5206 14.7802 13.6638 14.7976 13.7983 14.8435L15.6887 15.4891C15.8765 15.5531 16.0865 15.5024 16.2201 15.3624C17.012 14.5259 17.6103 13.5382 17.9756 12.4641C18.0061 12.3753 18.0081 12.2798 17.9813 12.1899C17.9545 12.1 17.9002 12.0199 17.8254 11.9599L16.2924 10.7182C16.1833 10.6302 16.0955 10.5203 16.0354 10.3964C15.9752 10.2724 15.944 10.1373 15.944 10.0006C15.944 9.86386 15.9752 9.72878 16.0354 9.60483C16.0955 9.48087 16.1833 9.37104 16.2924 9.28302L17.8254 8.04128C17.9002 7.98132 17.9545 7.90122 17.9813 7.81133C18.0081 7.72144 18.0061 7.62591 17.9756 7.53711C17.6095 6.4628 17.0103 5.47502 16.2173 4.63881C16.1511 4.5705 16.0656 4.52215 15.9713 4.49965C15.8769 4.47715 15.7778 4.48147 15.6859 4.5121L13.7941 5.15765C13.7435 5.17381 13.6919 5.18717 13.6397 5.19766M4.43093 5.97125L5.73434 6.4154C6.05867 6.52611 6.40419 6.568 6.74704 6.53817C7.08989 6.50835 7.42191 6.40753 7.72016 6.24267C8.0184 6.07781 8.27578 5.85284 8.4745 5.5833C8.67322 5.31376 8.80856 5.00607 8.87116 4.68149L9.11738 3.38772C9.70157 3.31629 10.2929 3.31629 10.8771 3.38772L11.1247 4.68149C11.1868 5.00629 11.3219 5.31426 11.5205 5.58404C11.7191 5.85383 11.9765 6.07899 12.2749 6.24392C12.5733 6.40885 12.9055 6.50961 13.2485 6.53922C13.5915 6.56883 13.9372 6.52658 14.2615 6.4154L15.5635 5.96858C15.9196 6.41584 16.2117 6.89778 16.4399 7.4144L15.391 8.26402C15.1275 8.47736 14.9157 8.74329 14.7704 9.04322C14.6251 9.34316 14.5498 9.66989 14.5498 10.0006C14.5498 10.3313 14.6251 10.658 14.7704 10.958C14.9157 11.2579 15.1275 11.5238 15.391 11.7372L16.4413 12.5868C16.2136 13.1021 15.9191 13.5878 15.5649 14.0326L14.2615 13.5871C13.9372 13.4764 13.5916 13.4345 13.2488 13.4644C12.9059 13.4942 12.5739 13.595 12.2757 13.7599C11.9774 13.9247 11.72 14.1497 11.5213 14.4192C11.3226 14.6888 11.1873 14.9965 11.1247 15.321L10.8771 16.6148C10.2929 16.6862 9.70157 16.6862 9.11738 16.6148L8.87116 15.321C8.809 14.9962 8.67393 14.6883 8.47532 14.4185C8.2767 14.1487 8.01929 13.9235 7.72091 13.7586C7.42253 13.5937 7.09033 13.4929 6.7473 13.4633C6.40428 13.4337 6.05865 13.4759 5.73434 13.5871L4.4351 14.0326C4.08087 13.5878 3.78644 13.1021 3.55874 12.5868L4.60759 11.7358C4.8709 11.5225 5.08249 11.2566 5.22764 10.9568C5.37278 10.657 5.44797 10.3305 5.44797 9.99993C5.44797 9.66939 5.37278 9.34284 5.22764 9.04303C5.08249 8.74321 4.8709 8.47737 4.60759 8.26402L3.55735 7.4144C3.78734 6.89778 4.07946 6.41584 4.43371 5.96858" fill="#404040"/>
<path d="M9.9993 7.33304V7.23304V7.33304ZM7.2172 10.0006H7.1172H7.2172ZM9.9993 8.66682V8.76682V8.66682ZM12.4948 4.44007L12.3966 4.45888L12.3967 4.45939L12.4948 4.44007ZM12.1332 2.55144L12.0348 2.5696L12.035 2.57025L12.1332 2.55144ZM11.7506 2.17532L11.7308 2.27333L11.7315 2.27347L11.7506 2.17532ZM8.24658 2.17532L8.26569 2.27348L8.26641 2.27333L8.24658 2.17532ZM7.86404 2.55144L7.96227 2.57018L7.96238 2.5696L7.86404 2.55144ZM7.50376 4.44007L7.6019 4.45927L7.60199 4.45881L7.50376 4.44007ZM6.20174 5.15765L6.16942 5.25228L6.16943 5.25228L6.20174 5.15765ZM4.3113 4.5121L4.34362 4.41746L4.34293 4.41723L4.3113 4.5121ZM3.77992 4.63881L3.7081 4.56922L3.7073 4.57005L3.77992 4.63881ZM2.02441 7.53711L2.119 7.56958L2.11909 7.5693L2.02441 7.53711ZM2.17465 8.04128L2.23759 7.96357L2.23718 7.96324L2.17465 8.04128ZM3.70759 9.28302L3.64464 9.36073L3.64567 9.36155L3.70759 9.28302ZM3.82026 9.39106L3.74417 9.45599L3.74559 9.45757L3.82026 9.39106ZM4.00738 9.71192L3.91262 9.74388L4.00738 9.71192ZM3.70759 10.7182L3.64464 10.6405L3.64464 10.6405L3.70759 10.7182ZM2.17465 11.9599L2.23718 12.038L2.23759 12.0376L2.17465 11.9599ZM2.02441 12.4641L2.11908 12.4319L2.119 12.4316L2.02441 12.4641ZM3.78131 15.3624L3.70872 15.4312L3.70949 15.432L3.78131 15.3624ZM4.31269 15.4891L4.34433 15.584L4.34499 15.5837L4.31269 15.4891ZM6.20452 14.8435L6.23681 14.9382L6.23713 14.9381L6.20452 14.8435ZM7.50654 15.5611L7.60478 15.5425L7.60475 15.5423L7.50654 15.5611ZM7.86543 17.4498L7.76719 17.4684L7.76726 17.4688L7.86543 17.4498ZM8.24797 17.8245L8.26781 17.7265L8.26745 17.7265L8.24797 17.8245ZM11.7534 17.8245L11.7341 17.7264L11.7336 17.7265L11.7534 17.8245ZM12.1346 17.4498L12.0363 17.4309L12.0363 17.4314L12.1346 17.4498ZM12.4962 15.5611L12.3981 15.5419L12.398 15.5423L12.4962 15.5611ZM13.7983 14.8435L13.8306 14.7489L13.8306 14.7489L13.7983 14.8435ZM15.6887 15.4891L15.6564 15.5837L15.6564 15.5837L15.6887 15.4891ZM16.2201 15.3624L16.2925 15.4314L16.2927 15.4311L16.2201 15.3624ZM17.9756 12.4641L17.881 12.4316L17.8809 12.4319L17.9756 12.4641ZM17.9813 12.1899L18.0771 12.1613L17.9813 12.1899ZM17.8254 11.9599L17.7624 12.0376L17.7628 12.038L17.8254 11.9599ZM16.2924 10.7182L16.3554 10.6405L16.3552 10.6403L16.2924 10.7182ZM15.944 10.0006H15.844H15.944ZM16.2924 9.28302L16.3552 9.36086L16.3554 9.36073L16.2924 9.28302ZM17.8254 8.04128L17.7628 7.96324L17.7624 7.96357L17.8254 8.04128ZM17.9813 7.81133L18.0771 7.83988L17.9813 7.81133ZM17.9756 7.53711L17.8809 7.56936L17.881 7.56958L17.9756 7.53711ZM16.2173 4.63881L16.2899 4.56999L16.2891 4.56922L16.2173 4.63881ZM15.6859 4.5121L15.6543 4.41723L15.6536 4.41746L15.6859 4.5121ZM13.7941 5.15765L13.8245 5.25293L13.8264 5.25229L13.7941 5.15765ZM5.73434 6.4154L5.76665 6.32076L5.7666 6.32074L5.73434 6.4154ZM8.87116 4.68149L8.96935 4.70043L8.9694 4.70018L8.87116 4.68149ZM9.11738 3.38772L9.10524 3.28846L9.03279 3.29732L9.01914 3.36903L9.11738 3.38772ZM10.8771 3.38772L10.9753 3.36892L10.9616 3.29731L10.8892 3.28846L10.8771 3.38772ZM11.1247 4.68149L11.0264 4.70028V4.70028L11.1247 4.68149ZM14.2615 6.4154L14.2939 6.50999L14.2939 6.50998L14.2615 6.4154ZM15.5635 5.96858L15.6417 5.9063L15.5978 5.8511L15.531 5.874L15.5635 5.96858ZM16.4399 7.4144L16.5028 7.4921L16.5622 7.44396L16.5313 7.374L16.4399 7.4144ZM15.391 8.26402L15.4539 8.34174L15.454 8.34172L15.391 8.26402ZM14.5498 10.0006H14.6498H14.5498ZM15.391 11.7372L15.3281 11.8149L15.3281 11.8149L15.391 11.7372ZM16.4413 12.5868L16.5327 12.6272L16.5637 12.5572L16.5042 12.509L16.4413 12.5868ZM15.5649 14.0326L15.5326 14.1272L15.5992 14.15L15.6431 14.0949L15.5649 14.0326ZM14.2615 13.5871L14.2938 13.4925L14.2938 13.4925L14.2615 13.5871ZM11.1247 15.321L11.0265 15.3021L11.0264 15.3022L11.1247 15.321ZM10.8771 16.6148L10.8892 16.7141L10.9616 16.7052L10.9753 16.6336L10.8771 16.6148ZM9.11738 16.6148L9.01914 16.6335L9.03279 16.7052L9.10524 16.7141L9.11738 16.6148ZM8.87116 15.321L8.9694 15.3023L8.96938 15.3022L8.87116 15.321ZM5.73434 13.5871L5.70191 13.4925L5.70191 13.4925L5.73434 13.5871ZM4.4351 14.0326L4.35688 14.0949L4.40082 14.1501L4.46754 14.1272L4.4351 14.0326ZM3.55874 12.5868L3.49574 12.5091L3.43638 12.5573L3.46727 12.6272L3.55874 12.5868ZM4.60759 11.7358L4.54464 11.6581L4.54459 11.6582L4.60759 11.7358ZM5.44797 9.99993H5.34797H5.44797ZM4.60759 8.26402L4.67055 8.18632L4.67049 8.18627L4.60759 8.26402ZM3.55735 7.4144L3.466 7.37373L3.43477 7.44386L3.49446 7.49215L3.55735 7.4144ZM9.9993 7.23304C9.23625 7.23304 8.50364 7.52364 7.96285 8.04217L8.10127 8.18653C8.60397 7.70453 9.28664 7.43304 9.9993 7.43304V7.23304ZM7.96285 8.04217C7.42192 8.56083 7.1172 9.26521 7.1172 10.0006H7.3172C7.3172 9.32103 7.59871 8.6684 8.10127 8.18653L7.96285 8.04217ZM7.1172 10.0006C7.1172 10.736 7.42192 11.4404 7.96285 11.959L8.10127 11.8147C7.59871 11.3328 7.3172 10.6802 7.3172 10.0006H7.1172ZM7.96285 11.959C8.50364 12.4775 9.23625 12.7682 9.9993 12.7682V12.5682C9.28664 12.5682 8.60397 12.2967 8.10127 11.8147L7.96285 11.959ZM9.9993 12.7682C10.7624 12.7682 11.495 12.4775 12.0358 11.959L11.8973 11.8147C11.3946 12.2967 10.712 12.5682 9.9993 12.5682V12.7682ZM12.0358 11.959C12.5767 11.4404 12.8814 10.736 12.8814 10.0006H12.6814C12.6814 10.6802 12.3999 11.3328 11.8973 11.8147L12.0358 11.959ZM12.8814 10.0006C12.8814 9.26521 12.5767 8.56083 12.0358 8.04217L11.8973 8.18653C12.3999 8.6684 12.6814 9.32103 12.6814 10.0006H12.8814ZM12.0358 8.04217C11.495 7.52364 10.7624 7.23304 9.9993 7.23304V7.43304C10.712 7.43304 11.3946 7.70453 11.8973 8.18653L12.0358 8.04217ZM8.70825 10.0006C8.70825 9.67477 8.84321 9.36139 9.08489 9.12965L8.94647 8.98529C8.66641 9.25382 8.50825 9.61895 8.50825 10.0006H8.70825ZM9.08489 9.12965C9.32672 8.89778 9.65557 8.76682 9.9993 8.76682V8.56682C9.60518 8.56682 9.22639 8.7169 8.94647 8.98529L9.08489 9.12965ZM9.9993 8.76682C10.343 8.76682 10.6719 8.89778 10.9137 9.12965L11.0521 8.98529C10.7722 8.7169 10.3934 8.56682 9.9993 8.56682V8.76682ZM10.9137 9.12965C11.1554 9.36139 11.2904 9.67477 11.2904 10.0006H11.4904C11.4904 9.61895 11.3322 9.25382 11.0521 8.98529L10.9137 9.12965ZM11.2904 10.0006C11.2904 10.3264 11.1554 10.6398 10.9137 10.8715L11.0521 11.0159C11.3322 10.7474 11.4904 10.3822 11.4904 10.0006H11.2904ZM10.9137 10.8715C10.6719 11.1034 10.343 11.2344 9.9993 11.2344V11.4344C10.3934 11.4344 10.7722 11.2843 11.0521 11.0159L10.9137 10.8715ZM9.9993 11.2344C9.65557 11.2344 9.32672 11.1034 9.08489 10.8715L8.94647 11.0159C9.22639 11.2843 9.60518 11.4344 9.9993 11.4344V11.2344ZM9.08489 10.8715C8.84321 10.6398 8.70825 10.3264 8.70825 10.0006H8.50825C8.50825 10.3822 8.66641 10.7474 8.94647 11.0159L9.08489 10.8715ZM13.624 5.0978C13.3923 5.13796 13.1537 5.08856 12.9606 4.96111L12.8504 5.12805C13.0867 5.28392 13.3769 5.34361 13.6582 5.29486L13.624 5.0978ZM12.9606 4.96111C12.7675 4.83375 12.636 4.63923 12.593 4.42076L12.3967 4.45939C12.4504 4.73205 12.614 4.9721 12.8504 5.12805L12.9606 4.96111ZM12.5931 4.42127L12.2314 2.53263L12.035 2.57025L12.3966 4.45888L12.5931 4.42127ZM12.2315 2.53329C12.2107 2.42041 12.155 2.31675 12.0724 2.23558L11.9322 2.37819C11.9861 2.43118 12.0216 2.49795 12.0348 2.5696L12.2315 2.53329ZM12.0724 2.23558C11.9899 2.15445 11.8844 2.09948 11.7697 2.07716L11.7315 2.27347C11.8084 2.28845 11.8783 2.32516 11.9322 2.37819L12.0724 2.23558ZM11.7705 2.0773C10.6021 1.8409 9.39513 1.8409 8.22675 2.0773L8.26641 2.27333C9.40862 2.04222 10.5886 2.04222 11.7308 2.27333L11.7705 2.0773ZM8.22747 2.07716C8.11284 2.09948 8.00729 2.15445 7.92478 2.23558L8.065 2.37819C8.11894 2.32516 8.18879 2.28845 8.26569 2.27347L8.22747 2.07716ZM7.92478 2.23558C7.84222 2.31675 7.78654 2.42041 7.7657 2.53329L7.96238 2.5696C7.97561 2.49795 8.01111 2.43118 8.065 2.37819L7.92478 2.23558ZM7.76581 2.5327L7.40553 4.42134L7.60199 4.45881L7.96227 2.57018L7.76581 2.5327ZM7.40562 4.42088C7.3822 4.54061 7.33195 4.65432 7.25806 4.75414L7.41881 4.87314C7.51015 4.74975 7.5727 4.60856 7.6019 4.45927L7.40562 4.42088ZM7.25806 4.75414C7.18416 4.85398 7.08832 4.93759 6.97694 4.99897L7.07348 5.17413C7.2096 5.09911 7.32748 4.99651 7.41881 4.87314L7.25806 4.75414ZM6.97694 4.99897C6.86555 5.06036 6.74139 5.09799 6.61301 5.10907L6.63021 5.30833C6.78614 5.29486 6.93737 5.24914 7.07348 5.17413L6.97694 4.99897ZM6.61301 5.10907C6.48462 5.12015 6.35531 5.10441 6.23405 5.06301L6.16943 5.25228C6.31709 5.3027 6.47427 5.32179 6.63021 5.30833L6.61301 5.10907ZM6.23405 5.06301L4.34362 4.41746L4.27899 4.60673L6.16942 5.25228L6.23405 5.06301ZM4.34293 4.41723C4.23336 4.3807 4.11522 4.37556 4.00275 4.40237L4.04914 4.59692C4.1254 4.57874 4.20556 4.58225 4.27967 4.60696L4.34293 4.41723ZM4.00275 4.40237C3.89027 4.4292 3.7878 4.48696 3.7081 4.56922L3.85174 4.70839C3.9044 4.65404 3.9729 4.6151 4.04914 4.59692L4.00275 4.40237ZM3.7073 4.57005C2.90559 5.4168 2.2997 6.41699 1.92974 7.50491L2.11909 7.5693C2.47963 6.50907 3.07031 5.53373 3.85254 4.70756L3.7073 4.57005ZM1.92983 7.50463C1.89258 7.61313 1.89015 7.73 1.9229 7.83988L2.11457 7.78277C2.09374 7.71288 2.09527 7.63868 2.119 7.56958L1.92983 7.50463ZM1.9229 7.83988C1.95563 7.94972 2.0218 8.04694 2.11211 8.11931L2.23718 7.96324C2.17787 7.91571 2.13541 7.85271 2.11457 7.78277L1.9229 7.83988ZM2.1117 8.11898L3.64464 9.36073L3.77053 9.20532L2.23759 7.96357L2.1117 8.11898ZM3.64567 9.36155C3.68242 9.39052 3.71521 9.422 3.74419 9.45597L3.89633 9.32615C3.85854 9.28187 3.81621 9.24132 3.7695 9.20449L3.64567 9.36155ZM3.74559 9.45757C3.82058 9.54176 3.87727 9.63909 3.91262 9.74388L4.10213 9.67996C4.05805 9.54929 3.98756 9.42854 3.89493 9.32454L3.74559 9.45757ZM3.91262 9.74388C3.94797 9.84867 3.96134 9.95901 3.95203 10.0686L4.15131 10.0855C4.16295 9.94849 4.14621 9.81063 4.10213 9.67996L3.91262 9.74388ZM3.95203 10.0686C3.94273 10.1782 3.91091 10.2852 3.85825 10.3833L4.03447 10.4778C4.09992 10.3559 4.13968 10.2226 4.15131 10.0855L3.95203 10.0686ZM3.85825 10.3833C3.80559 10.4814 3.73306 10.5688 3.64464 10.6405L3.77053 10.7959C3.87927 10.7078 3.96904 10.5998 4.03447 10.4778L3.85825 10.3833ZM3.64464 10.6405L2.1117 11.8822L2.23759 12.0376L3.77053 10.7959L3.64464 10.6405ZM2.11211 11.8819C2.0218 11.9543 1.95563 12.0515 1.9229 12.1613L2.11457 12.2184C2.13541 12.1485 2.17787 12.0855 2.23718 12.038L2.11211 11.8819ZM1.9229 12.1613C1.89015 12.2712 1.89258 12.3881 1.92983 12.4966L2.119 12.4316C2.09527 12.3625 2.09374 12.2883 2.11457 12.2184L1.9229 12.1613ZM1.92975 12.4963C2.30012 13.5844 2.90651 14.5845 3.70872 15.4312L3.8539 15.2936C3.07118 14.4676 2.48003 13.4922 2.11908 12.4319L1.92975 12.4963ZM3.70949 15.432C3.78919 15.5142 3.89166 15.572 4.00414 15.5988L4.05053 15.4043C3.97429 15.3861 3.90579 15.3472 3.85313 15.2928L3.70949 15.432ZM4.00414 15.5988C4.11661 15.6256 4.23475 15.6205 4.34433 15.584L4.28106 15.3942C4.20695 15.4189 4.12679 15.4225 4.05053 15.4043L4.00414 15.5988ZM4.34499 15.5837L6.23681 14.9382L6.17222 14.7489L4.2804 15.3945L4.34499 15.5837ZM6.23713 14.9381C6.35834 14.8963 6.48771 14.8802 6.61621 14.8911L6.6331 14.6918C6.47694 14.6786 6.31959 14.6981 6.17191 14.749L6.23713 14.9381ZM6.61621 14.8911C6.74471 14.902 6.86901 14.9395 6.98048 15.001L7.07701 14.8258C6.94073 14.7507 6.78926 14.705 6.6331 14.6918L6.61621 14.8911ZM6.98048 15.001C7.09194 15.0624 7.18778 15.1461 7.26156 15.2462L7.4225 15.1274C7.33127 15.0038 7.21331 14.9009 7.07701 14.8258L6.98048 15.001ZM7.26156 15.2462C7.33532 15.3462 7.38532 15.4601 7.40834 15.58L7.60475 15.5423C7.57603 15.3927 7.51375 15.2511 7.4225 15.1274L7.26156 15.2462ZM7.4083 15.5798L7.76719 17.4684L7.96368 17.4311L7.60478 15.5425L7.4083 15.5798ZM7.76726 17.4688C7.81151 17.6972 7.99576 17.8764 8.22849 17.9226L8.26745 17.7265C8.11069 17.6953 7.99169 17.5757 7.96361 17.4307L7.76726 17.4688ZM8.22813 17.9226C9.39697 18.1591 10.6044 18.1591 11.7733 17.9226L11.7336 17.7265C10.5909 17.9578 9.41046 17.9578 8.26781 17.7265L8.22813 17.9226ZM11.7728 17.9227C11.8869 17.9002 11.9919 17.8453 12.0741 17.7645L11.9338 17.6219C11.8801 17.6747 11.8106 17.7113 11.7341 17.7264L11.7728 17.9227ZM12.0741 17.7645C12.1563 17.6837 12.2118 17.5805 12.2329 17.4681L12.0363 17.4314C12.0229 17.5027 11.9875 17.5691 11.9338 17.6219L12.0741 17.7645ZM12.2328 17.4686L12.5945 15.5799L12.398 15.5423L12.0364 17.4309L12.2328 17.4686ZM12.5944 15.5803C12.6178 15.4606 12.668 15.3469 12.7419 15.2471L12.5812 15.1281C12.4899 15.2514 12.4273 15.3926 12.3981 15.5419L12.5944 15.5803ZM12.7419 15.2471C12.8158 15.1472 12.9117 15.0636 13.0231 15.0022L12.9265 14.8271C12.7904 14.9021 12.6725 15.0047 12.5812 15.1281L12.7419 15.2471ZM13.0231 15.0022C13.1344 14.9408 13.2586 14.9032 13.387 14.8921L13.3698 14.6929C13.2139 14.7063 13.0626 14.752 12.9265 14.8271L13.0231 15.0022ZM13.387 14.8921C13.5154 14.881 13.6447 14.8968 13.766 14.9382L13.8306 14.7489C13.6829 14.6985 13.5257 14.6794 13.3698 14.6929L13.387 14.8921ZM13.7659 14.9382L15.6564 15.5837L15.721 15.3945L13.8306 14.7489L13.7659 14.9382ZM15.6564 15.5837C15.8803 15.6601 16.1314 15.6003 16.2925 15.4314L16.1477 15.2934C16.0417 15.4046 15.8727 15.4462 15.721 15.3944L15.6564 15.5837ZM16.2927 15.4311C17.0944 14.5844 17.7003 13.5842 18.0703 12.4963L17.8809 12.4319C17.5204 13.4921 16.9297 14.4675 16.1475 15.2936L16.2927 15.4311ZM18.0702 12.4966C18.1074 12.3881 18.1098 12.2712 18.0771 12.1613L17.8854 12.2184C17.9063 12.2883 17.9047 12.3625 17.881 12.4316L18.0702 12.4966ZM18.0771 12.1613C18.0444 12.0515 17.9782 11.9543 17.8879 11.8819L17.7628 12.038C17.8221 12.0855 17.8646 12.1485 17.8854 12.2184L18.0771 12.1613ZM17.8883 11.8822L16.3554 10.6405L16.2295 10.7959L17.7624 12.0376L17.8883 11.8822ZM16.3552 10.6403C16.2573 10.5614 16.1789 10.4632 16.1253 10.3527L15.9454 10.44C16.0121 10.5775 16.1092 10.6989 16.2296 10.796L16.3552 10.6403ZM16.1253 10.3527C16.0717 10.2422 16.044 10.1221 16.044 10.0006H15.844C15.844 10.1526 15.8786 10.3026 15.9454 10.44L16.1253 10.3527ZM16.044 10.0006C16.044 9.87912 16.0717 9.75896 16.1253 9.64851L15.9454 9.56115C15.8786 9.69861 15.844 9.84861 15.844 10.0006H16.044ZM16.1253 9.64851C16.1789 9.53804 16.2573 9.4398 16.3552 9.36086L16.2296 9.20518C16.1092 9.30228 16.0121 9.4237 15.9454 9.56115L16.1253 9.64851ZM16.3554 9.36073L17.8883 8.11898L17.7624 7.96357L16.2295 9.20532L16.3554 9.36073ZM17.8879 8.11931C17.9782 8.04694 18.0444 7.94972 18.0771 7.83988L17.8854 7.78277C17.8646 7.85271 17.8221 7.91571 17.7628 7.96324L17.8879 8.11931ZM18.0771 7.83988C18.1098 7.73 18.1074 7.61313 18.0702 7.50463L17.881 7.56958C17.9047 7.63868 17.9063 7.71288 17.8854 7.78277L18.0771 7.83988ZM18.0702 7.50485C17.6994 6.4167 17.0926 5.4165 16.2899 4.57L16.1447 4.70762C16.9279 5.53354 17.5196 6.5089 17.8809 7.56936L18.0702 7.50485ZM16.2891 4.56922C16.2094 4.48696 16.1069 4.4292 15.9945 4.40237L15.9481 4.59692C16.0243 4.6151 16.0928 4.65404 16.1455 4.70839L16.2891 4.56922ZM15.9945 4.40237C15.882 4.37556 15.7639 4.3807 15.6543 4.41723L15.7176 4.60696C15.7917 4.58225 15.8718 4.57874 15.9481 4.59692L15.9945 4.40237ZM15.6536 4.41746L13.7618 5.063L13.8264 5.25229L15.7182 4.60674L15.6536 4.41746ZM13.7637 5.06239C13.7166 5.07742 13.6686 5.08986 13.62 5.09962L13.6594 5.2957C13.7152 5.28449 13.7704 5.2702 13.8245 5.25291L13.7637 5.06239ZM4.39868 6.06591L5.70209 6.51005L5.7666 6.32074L4.46319 5.8766L4.39868 6.06591ZM5.70204 6.51004C6.03958 6.62526 6.39906 6.66882 6.7557 6.6378L6.73837 6.43855C6.40931 6.46717 6.07775 6.42696 5.76665 6.32076L5.70204 6.51004ZM6.7557 6.6378C7.11235 6.60677 7.45792 6.50188 7.76853 6.33018L7.67178 6.15515C7.3859 6.31317 7.06743 6.40993 6.73837 6.43855L6.7557 6.6378ZM7.76853 6.33018C8.07916 6.15848 8.34756 5.92398 8.55499 5.64264L8.39401 5.52395C8.20399 5.78169 7.95765 5.99713 7.67178 6.15515L7.76853 6.33018ZM8.55499 5.64264C8.76243 5.36128 8.90389 5.03982 8.96935 4.70043L8.77297 4.66255C8.71323 4.97232 8.58402 5.26624 8.39401 5.52395L8.55499 5.64264ZM8.9694 4.70018L9.21562 3.40642L9.01914 3.36903L8.77293 4.66279L8.9694 4.70018ZM9.12952 3.48698C9.70565 3.41654 10.2888 3.41654 10.8649 3.48698L10.8892 3.28846C10.2969 3.21604 9.6975 3.21604 9.10524 3.28846L9.12952 3.48698ZM10.7788 3.40652L11.0264 4.70028L11.2229 4.66269L10.9753 3.36892L10.7788 3.40652ZM11.0264 4.70028C11.0915 5.03993 11.2326 5.3617 11.44 5.64333L11.601 5.52476C11.4111 5.26682 11.2822 4.97265 11.2229 4.66269L11.0264 4.70028ZM11.44 5.64333C11.6473 5.92495 11.9158 6.15965 12.2265 6.33144L12.3233 6.1564C12.0373 5.99832 11.7909 5.78271 11.601 5.52476L11.44 5.64333ZM12.2265 6.33144C12.5373 6.50322 12.8831 6.60805 13.2399 6.63885L13.2571 6.43959C12.9279 6.41118 12.6093 6.31448 12.3233 6.1564L12.2265 6.33144ZM13.2399 6.63885C13.5968 6.66965 13.9564 6.62571 14.2939 6.50999L14.2291 6.3208C13.918 6.42745 13.5863 6.46801 13.2571 6.43959L13.2399 6.63885ZM14.2939 6.50998L15.596 6.06317L15.531 5.874L14.229 6.32081L14.2939 6.50998ZM15.4853 6.03087C15.8361 6.47152 16.1238 6.94611 16.3484 7.4548L16.5313 7.374C16.2997 6.84946 16.0031 6.36017 15.6417 5.9063L15.4853 6.03087ZM16.3769 7.33669L15.3281 8.18631L15.454 8.34172L16.5028 7.4921L16.3769 7.33669ZM15.3281 8.18629C15.0533 8.40872 14.8322 8.68623 14.6804 8.99963L14.8604 9.08682C14.9991 8.80034 15.2016 8.546 15.4539 8.34174L15.3281 8.18629ZM14.6804 8.99963C14.5286 9.31305 14.4498 9.65466 14.4498 10.0006H14.6498C14.6498 9.68511 14.7216 9.37327 14.8604 9.08682L14.6804 8.99963ZM14.4498 10.0006C14.4498 10.3465 14.5286 10.6881 14.6804 11.0016L14.8604 10.9144C14.7216 10.6279 14.6498 10.3161 14.6498 10.0006H14.4498ZM14.6804 11.0016C14.8322 11.315 15.0533 11.5925 15.3281 11.8149L15.4539 11.6595C15.2016 11.4552 14.9991 11.2008 14.8604 10.9144L14.6804 11.0016ZM15.3281 11.8149L16.3784 12.6645L16.5042 12.509L15.4539 11.6594L15.3281 11.8149ZM16.3498 12.5464C16.1256 13.0538 15.8356 13.5322 15.4867 13.9703L15.6431 14.0949C16.0026 13.6435 16.3015 13.1504 16.5327 12.6272L16.3498 12.5464ZM15.5972 13.938L14.2938 13.4925L14.2291 13.6818L15.5326 14.1272L15.5972 13.938ZM14.2938 13.4925C13.9562 13.3773 13.5968 13.3337 13.2401 13.3647L13.2575 13.564C13.5865 13.5354 13.9181 13.5756 14.2292 13.6818L14.2938 13.4925ZM13.2401 13.3647C12.8835 13.3958 12.5379 13.5006 12.2273 13.6723L12.324 13.8474C12.6099 13.6894 12.9284 13.5926 13.2575 13.564L13.2401 13.3647ZM12.2273 13.6723C11.9167 13.844 11.6483 14.0785 11.4408 14.3599L11.6018 14.4786C11.7918 14.2208 12.0382 14.0054 12.324 13.8474L12.2273 13.6723ZM11.4408 14.3599C11.2334 14.6412 11.0919 14.9627 11.0265 15.3021L11.2229 15.34C11.2826 15.0302 11.4118 14.7363 11.6018 14.4786L11.4408 14.3599ZM11.0264 15.3022L10.7788 16.596L10.9753 16.6336L11.2229 15.3398L11.0264 15.3022ZM10.8649 16.5155C10.2888 16.586 9.70565 16.586 9.12952 16.5155L9.10524 16.7141C9.6975 16.7865 10.2969 16.7865 10.8892 16.7141L10.8649 16.5155ZM9.21562 16.5961L8.9694 15.3023L8.77293 15.3397L9.01914 16.6335L9.21562 16.5961ZM8.96938 15.3022C8.90438 14.9626 8.76318 14.6408 8.55585 14.3592L8.39478 14.4778C8.58468 14.7357 8.71362 15.0299 8.77295 15.3398L8.96938 15.3022ZM8.55585 14.3592C8.34852 14.0776 8.08006 13.8429 7.76929 13.6711L7.67253 13.8461C7.95851 14.0042 8.20488 14.2198 8.39478 14.4778L8.55585 14.3592ZM7.76929 13.6711C7.45852 13.4993 7.11274 13.3945 6.7559 13.3637L6.7387 13.5629C7.06791 13.5914 7.38654 13.688 7.67253 13.8461L7.76929 13.6711ZM6.7559 13.3637C6.39906 13.3329 6.03945 13.3768 5.70191 13.4925L5.76678 13.6817C6.07784 13.5751 6.4095 13.5345 6.7387 13.5629L6.7559 13.3637ZM5.70191 13.4925L4.40267 13.938L4.46754 14.1272L5.76678 13.6817L5.70191 13.4925ZM4.51333 13.9703C4.16438 13.5322 3.87441 13.0538 3.65021 12.5464L3.46727 12.6272C3.69846 13.1504 3.99737 13.6435 4.35688 14.0949L4.51333 13.9703ZM3.62175 12.6644L4.6706 11.8135L4.54459 11.6582L3.49574 12.5091L3.62175 12.6644ZM4.67055 11.8135C4.94506 11.5911 5.16599 11.3137 5.31764 11.0004L5.13763 10.9133C4.999 11.1996 4.79673 11.4539 4.54464 11.6581L4.67055 11.8135ZM5.31764 11.0004C5.46931 10.6871 5.54797 10.3457 5.54797 9.99993H5.34797C5.34797 10.3153 5.27625 10.6269 5.13763 10.9133L5.31764 11.0004ZM5.54797 9.99993C5.54797 9.65418 5.46931 9.31274 5.31764 8.99945L5.13763 9.0866C5.27625 9.37293 5.34797 9.68461 5.34797 9.99993H5.54797ZM5.31764 8.99945C5.16599 8.68618 4.94506 8.40875 4.67055 8.18632L4.54464 8.34171C4.79673 8.54598 4.999 8.80025 5.13763 9.0866L5.31764 8.99945ZM4.67049 8.18627L3.62025 7.33665L3.49446 7.49215L4.5447 8.34176L4.67049 8.18627ZM3.64871 7.45507C3.87526 6.94618 4.163 6.47142 4.5121 6.03067L4.35532 5.9065C3.99591 6.36026 3.69942 6.84939 3.466 7.37373L3.64871 7.45507Z" fill="white" mask="url(#path-1-inside-1_2002_372)"/>
</svg>
