<?xml version="1.0" encoding="utf-8"?><svg xmlns="http://www.w3.org/2000/svg" xmlns:xlink="http://www.w3.org/1999/xlink"><symbol fill="none" viewBox="0 0 24 24" id="add" xmlns="http://www.w3.org/2000/svg"><mask id="aa" style="mask-type:alpha" maskUnits="userSpaceOnUse" x="0" y="0" width="24" height="24"><path fill="#0076F5" d="M0 0h24v24H0z"/></mask><g mask="url(#aa)"><path d="M11.111 20v-7.111H4V11.11h7.111V4h1.778v7.111H20v1.778h-7.111V20H11.11Z" fill="#0076F5"/></g></symbol><symbol fill="none" viewBox="0 0 16 16" id="arrow_back" xmlns="http://www.w3.org/2000/svg"><path d="M3.825 8.9h-.241l.17.17 5.529 5.53L8 15.86.14 8 8.001.14 9.283 1.4 3.754 6.93l-.17.17H15.9v1.8H3.825Z" fill="#747474" stroke="#fff" stroke-width=".2"/></symbol><symbol fill="none" viewBox="0 0 16 16" id="arrow_dropdown" xmlns="http://www.w3.org/2000/svg"><path d="M10.571 6c.08 0 .158.02.226.06.067.039.122.095.158.161a.378.378 0 0 1-.04.419l-2.572 3.2a.423.423 0 0 1-.151.118.454.454 0 0 1-.535-.118l-2.571-3.2a.377.377 0 0 1-.04-.419.412.412 0 0 1 .157-.161A.452.452 0 0 1 5.43 6h5.142Z" fill="currentColor"/></symbol><symbol fill="none" viewBox="0 0 16 12" id="burger" xmlns="http://www.w3.org/2000/svg"><path d="M0 12v-2h16v2H0Zm0-5V5h16v2H0Zm0-5V0h16v2H0Z" fill="#747474"/></symbol><symbol fill="none" viewBox="0 0 20 20" id="folder" xmlns="http://www.w3.org/2000/svg"><mask id="ea" style="mask-type:alpha" maskUnits="userSpaceOnUse" x="0" y="0" width="20" height="20"><path fill="#D9D9D9" d="M0 0h20v20H0z"/></mask><g mask="url(#ea)"><path d="m9.929 4.695.03.03H16.4c.413 0 .764.148 1.059.448.295.299.441.656.441 1.077v8.125c0 .42-.146.778-.441 1.078-.295.299-.646.447-1.059.447H3.6c-.413 0-.764-.148-1.059-.447a1.477 1.477 0 0 1-.441-1.078v-9.75c0-.42.146-.778.441-1.078A1.43 1.43 0 0 1 3.6 3.1h4.758l1.57 1.595ZM3.5 14.375v.1h13V6.15H9.382l-1.57-1.595-.03-.03H3.5v9.85Z" fill="#404040" stroke="#fff" stroke-width=".2"/></g></symbol><symbol fill="none" viewBox="0 0 20 20" id="grid_view" xmlns="http://www.w3.org/2000/svg"><path d="M3.578 7.333v.2H7.533V3.578H3.578V7.333Zm8.889 0v.2H16.422V3.578H12.467V7.333Zm0 8.89v.2H16.422V12.466H12.467V16.222Zm-8.89 0v.2H7.534V12.466H3.578V16.222ZM2.2 8.91V2.2h6.711v6.711H2.2Zm0 8.889v-6.711h6.711V17.8H2.2Zm8.889-8.889V2.2H17.8v6.711h-6.711Zm0 8.889v-6.711H17.8V17.8h-6.711Z" fill="currentColor" stroke="#fff" stroke-width=".4"/></symbol><symbol fill="none" viewBox="0 0 20 20" id="key" xmlns="http://www.w3.org/2000/svg"><path d="M5.696 11.233c-.404 0-.747-.144-1.034-.435A1.437 1.437 0 0 1 4.23 9.75c0-.41.143-.757.432-1.047.288-.291.632-.435 1.034-.436.402-.001.745.143 1.034.435.29.293.432.64.43 1.048a1.453 1.453 0 0 1-.43 1.049 1.378 1.378 0 0 1-1.034.434ZM9.68 7.425l.029.05h6.902l2.25 2.275-3.391 3.43-1.495-1.135-.061-.046-.06.046-1.507 1.143-1.603-1.144-.026-.019H9.708l-.03.05a4.792 4.792 0 0 1-1.657 1.687 4.36 4.36 0 0 1-2.325.638c-1.278 0-2.361-.451-3.255-1.356-.895-.904-1.341-2-1.341-3.294s.446-2.39 1.34-3.294C3.336 5.55 4.419 5.1 5.697 5.1c.856 0 1.63.213 2.325.638.697.427 1.25.99 1.658 1.688Zm2.572 4.01.06.042.058-.044 1.543-1.161 1.329 1.041.07.055.062-.063 1.468-1.485.07-.07-.07-.07-.783-.792-.03-.03H8.805a3.292 3.292 0 0 0-1.118-1.68 3.074 3.074 0 0 0-1.99-.695c-.888 0-1.65.321-2.282.96a3.167 3.167 0 0 0-.949 2.307c0 .897.317 1.668.949 2.307.631.639 1.394.96 2.282.96.752 0 1.417-.232 1.99-.695a3.286 3.286 0 0 0 1.118-1.68h2.338l1.109.793Z" fill="#404040" stroke="#F7F7F7" stroke-width=".2"/></symbol><symbol fill="none" viewBox="0 0 16 16" id="link" xmlns="http://www.w3.org/2000/svg"><path d="M12.667 12.717h.05V8.05h1.233v4.617c0 .705-.578 1.283-1.283 1.283H3.333a1.283 1.283 0 0 1-1.283-1.283V3.333c0-.706.571-1.283 1.283-1.283H7.95v1.233H3.283V12.717h9.384Zm.05-6.1V4.153l-.086.085-6.518 6.518-.869-.87 6.518-6.517.085-.086H9.383V2.05h4.567v4.567h-1.233Z" fill="currentColor" stroke="#fff" stroke-width=".1"/></symbol><symbol fill="none" viewBox="0 0 54 23" id="logo" xmlns="http://www.w3.org/2000/svg"><path d="M8.545 22.3c-2.66 0-4.67-.63-6.03-1.89-1.34-1.26-2.08-3.03-2.22-5.31h3.84c.1 1.32.5 2.3 1.2 2.94.7.64 1.77.96 3.21.96 1.38 0 2.37-.25 2.97-.75.6-.5.9-1.17.9-2.01 0-.78-.29-1.37-.87-1.77-.58-.4-1.31-.73-2.19-.99-.88-.28-1.83-.54-2.85-.78-1.02-.26-1.97-.62-2.85-1.08a6.363 6.363 0 0 1-2.19-1.86c-.58-.78-.87-1.84-.87-3.18 0-.84.16-1.61.48-2.31.32-.72.79-1.34 1.41-1.86.64-.54 1.42-.96 2.34-1.26.94-.3 2.03-.45 3.27-.45 2.58 0 4.51.6 5.79 1.8 1.28 1.2 2 2.9 2.16 5.1h-3.84c-.1-1.2-.47-2.1-1.11-2.7-.64-.6-1.64-.9-3-.9-1.32 0-2.27.25-2.85.75-.58.48-.87 1.1-.87 1.86 0 .82.29 1.44.87 1.86.58.4 1.31.73 2.19.99.88.26 1.83.51 2.85.75 1.02.22 1.97.55 2.85.99a5.96 5.96 0 0 1 2.19 1.86c.58.78.87 1.85.87 3.21 0 .88-.16 1.69-.48 2.43-.3.74-.77 1.38-1.41 1.92-.64.52-1.44.93-2.4 1.23-.96.3-2.08.45-3.36.45ZM19.505 1h13.5v3.3h-9.9v5.25h8.1v3.3h-8.1v5.85h9.9V22h-13.5V1Zm24.751 21.3c-1.42 0-2.7-.22-3.84-.66a8.298 8.298 0 0 1-2.94-1.98c-.8-.88-1.42-1.96-1.86-3.24-.44-1.3-.66-2.78-.66-4.44v-1.26c0-1.58.22-2.99.66-4.23.44-1.24 1.06-2.29 1.86-3.15.82-.86 1.8-1.51 2.94-1.95 1.16-.46 2.44-.69 3.84-.69s2.67.23 3.81.69c1.16.44 2.14 1.09 2.94 1.95.82.84 1.45 1.89 1.89 3.15.44 1.24.66 2.65.66 4.23v1.26c0 1.66-.22 3.13-.66 4.41-.44 1.28-1.07 2.36-1.89 3.24a7.79 7.79 0 0 1-2.94 2.01c-1.14.44-2.41.66-3.81.66Zm0-3.3c1.66 0 2.99-.56 3.99-1.68 1.02-1.12 1.53-2.9 1.53-5.34v-1.26c0-2.24-.51-3.92-1.53-5.04S45.896 4 44.256 4c-1.68 0-3.02.55-4.02 1.65-1 1.1-1.5 2.79-1.5 5.07v1.26c0 2.4.5 4.17 1.5 5.31 1.02 1.14 2.36 1.71 4.02 1.71Z" fill="#404040"/></symbol><symbol fill="none" viewBox="0 0 20 20" id="move_item" xmlns="http://www.w3.org/2000/svg"><mask id="ja" style="mask-type:alpha" maskUnits="userSpaceOnUse" x="0" y="0" width="20" height="20"><path fill="#D9D9D9" d="M0 0h20v20H0z"/></mask><g mask="url(#ja)"><path d="m15.138 10.848.167-.17H5.91V9.322h9.395l-.167-.17-1.114-1.137.93-.982L17.86 10l-2.906 2.967-.93-.982 1.114-1.137Zm-3.895 4.596v-3.01h1.324v3.01c0 .402-.14.743-.42 1.03-.28.285-.613.426-1.004.426h-7.62c-.39 0-.724-.141-1.004-.427a1.414 1.414 0 0 1-.419-1.029V4.556c0-.402.139-.743.419-1.03.28-.285.613-.426 1.005-.426h7.619c.391 0 .725.141 1.005.427.28.286.419.627.419 1.029v3.01h-1.324v-3.11H3.423v11.088H11.244v-.1Z" fill="#E50C00" stroke="#fff" stroke-width=".2"/></g></symbol><symbol fill="none" viewBox="0 0 16 23" id="pre-logo" xmlns="http://www.w3.org/2000/svg"><path d="M8.295 22.3c-2.66 0-4.67-.63-6.03-1.89-1.34-1.26-2.08-3.03-2.22-5.31h3.84c.1 1.32.5 2.3 1.2 2.94.7.64 1.77.96 3.21.96 1.38 0 2.37-.25 2.97-.75.6-.5.9-1.17.9-2.01 0-.78-.29-1.37-.87-1.77-.58-.4-1.31-.73-2.19-.99-.88-.28-1.83-.54-2.85-.78-1.02-.26-1.97-.62-2.85-1.08a6.363 6.363 0 0 1-2.19-1.86c-.58-.78-.87-1.84-.87-3.18 0-.84.16-1.61.48-2.31.32-.72.79-1.34 1.41-1.86.64-.54 1.42-.96 2.34-1.26.94-.3 2.03-.45 3.27-.45 2.58 0 4.51.6 5.79 1.8 1.28 1.2 2 2.9 2.16 5.1h-3.84c-.1-1.2-.47-2.1-1.11-2.7-.64-.6-1.64-.9-3-.9-1.32 0-2.27.25-2.85.75-.58.48-.87 1.1-.87 1.86 0 .82.29 1.44.87 1.86.58.4 1.31.73 2.19.99.88.26 1.83.51 2.85.75 1.02.22 1.97.55 2.85.99a5.96 5.96 0 0 1 2.19 1.86c.58.78.87 1.85.87 3.21 0 .88-.16 1.69-.48 2.43-.3.74-.77 1.38-1.41 1.92-.64.52-1.44.93-2.4 1.23-.96.3-2.08.45-3.36.45Z" fill="#404040"/></symbol><symbol fill="none" viewBox="0 0 24 24" id="refresh" xmlns="http://www.w3.org/2000/svg"><path d="M22.698 11.875h-2.823V12A7.873 7.873 0 0 1 12 19.875c-1.489 0-2.877-.42-4.06-1.138l1.283-1.283c.83.432 1.78.671 2.777.671A6.13 6.13 0 0 0 18.125 12v-.125h-2.823L19 8.177l3.698 3.698ZM5.875 12v.125h2.823L5 15.823l-3.698-3.698h2.823V12A7.873 7.873 0 0 1 12 4.125c1.49 0 2.878.42 4.06 1.138l-1.283 1.284A6.003 6.003 0 0 0 12 5.875 6.13 6.13 0 0 0 5.875 12Z" fill="#0076F5" stroke="#F2F8FE" stroke-width=".25"/></symbol><symbol fill="none" viewBox="0 0 20 20" id="screen_search_desktop" xmlns="http://www.w3.org/2000/svg"><mask id="ma" style="mask-type:alpha" maskUnits="userSpaceOnUse" x="0" y="0" width="20" height="20"><path fill="#D9D9D9" d="M0 0h20v20H0z"/></mask><g mask="url(#ma)"><path d="m11.698 10.373-.045.068.058.058 1.454 1.444-.654.62-1.422-1.447-.055-.056-.068.04a2.71 2.71 0 0 1-.64.288 2.424 2.424 0 0 1-.69.095 2.386 2.386 0 0 1-1.721-.703 2.304 2.304 0 0 1-.724-1.724c0-.684.24-1.257.724-1.725a2.386 2.386 0 0 1 1.721-.703c.665 0 1.237.233 1.722.703.483.468.724 1.041.724 1.725a2.334 2.334 0 0 1-.384 1.318ZM4.082 13.39v.1H15.918V5.344H4.082v8.045Zm4.456-3.242c.304.301.672.453 1.098.453.427 0 .794-.152 1.098-.453.303-.302.457-.667.457-1.091 0-.425-.157-.791-.467-1.092a1.515 1.515 0 0 0-1.088-.453c-.426 0-.794.152-1.098.453a1.486 1.486 0 0 0-.456 1.092c0 .424.153.79.456 1.09Zm-4.356 4.586c-.374 0-.691-.13-.957-.395a1.286 1.286 0 0 1-.398-.95V5.445c0-.37.132-.684.398-.949.266-.264.583-.395.957-.395h11.636c.374 0 .69.13.957.395.266.265.398.58.398.95v7.944c0 .37-.132.685-.398.95a1.306 1.306 0 0 1-.957.394H4.182ZM2.1 16.9v-1.244h15.8V16.9H2.1Z" fill="currentColor" stroke="#fff" stroke-width=".2"/></g></symbol><symbol fill="none" viewBox="0 0 20 20" id="search_box" xmlns="http://www.w3.org/2000/svg"><path d="M7.754 12.846h-.663a5.052 5.052 0 0 1-3.53-1.428A4.815 4.815 0 0 1 2.1 7.973c0-1.292.525-2.53 1.46-3.445A5.052 5.052 0 0 1 7.09 3.1h5.818c.843 0 1.671.208 2.41.605.737.396 1.36.969 1.81 1.664a4.77 4.77 0 0 1 .377 4.506 5.082 5.082 0 0 0-.924-1.226c.099-.514.084-1.043-.044-1.55a3.62 3.62 0 0 0-.735-1.437 3.724 3.724 0 0 0-1.293-.99 3.808 3.808 0 0 0-1.6-.351H7.09c-.99 0-1.94.384-2.641 1.069a3.61 3.61 0 0 0-1.096 2.583c0 .97.395 1.898 1.096 2.583a3.78 3.78 0 0 0 2.64 1.069h.664c-.05.405-.05.815 0 1.22Zm8.105 1.292-.046.069.06.058 1.77 1.73-.885.865-1.775-1.732-.057-.056-.067.043a3.608 3.608 0 0 1-3.627.16 3.501 3.501 0 0 1-1.36-1.27 3.385 3.385 0 0 1-.124-3.32c.248-.48.607-.897 1.05-1.219a3.58 3.58 0 0 1 1.499-.63 3.62 3.62 0 0 1 1.63.094 3.558 3.558 0 0 1 1.412.8c.4.37.707.825.894 1.331a3.376 3.376 0 0 1-.373 3.077Zm-2.95-4.134c-.605 0-1.185.235-1.613.653-.428.418-.67.986-.67 1.578 0 .593.242 1.16.67 1.579a2.308 2.308 0 0 0 1.612.652c.605 0 1.185-.234 1.613-.652.428-.418.669-.986.669-1.579 0-.592-.24-1.16-.67-1.578a2.308 2.308 0 0 0-1.612-.653Z" fill="currentColor" stroke="#fff" stroke-width=".2"/></symbol><symbol fill="none" viewBox="0 0 20 20" id="settings" xmlns="http://www.w3.org/2000/svg"><mask id="oa" fill="#fff"><path d="M10 7.333c-.739 0-1.446.281-1.968.781a2.613 2.613 0 0 0-.815 1.887c0 .707.293 1.386.815 1.886s1.23.781 1.967.781c.738 0 1.446-.28 1.967-.781.522-.5.815-1.179.815-1.886 0-.708-.293-1.386-.815-1.887A2.844 2.844 0 0 0 10 7.333Zm-1.392 2.668c0-.354.147-.693.408-.944.26-.25.614-.39.983-.39.37 0 .723.14.984.39.26.25.407.59.407.944 0 .353-.146.693-.407.943-.26.25-.615.39-.984.39s-.722-.14-.983-.39-.408-.59-.408-.943Zm5.033-4.805c-.256.045-.52-.01-.736-.151a.945.945 0 0 1-.41-.605l-.362-1.889a.461.461 0 0 0-.13-.244.493.493 0 0 0-.252-.132 8.842 8.842 0 0 0-3.504 0 .493.493 0 0 0-.252.132.46.46 0 0 0-.131.244l-.36 1.89a.927.927 0 0 1-.166.373.974.974 0 0 1-.313.273 1.018 1.018 0 0 1-.823.07l-1.89-.645a.521.521 0 0 0-.532.127 7.933 7.933 0 0 0-1.756 2.898.449.449 0 0 0-.005.274c.027.09.08.17.156.23l1.533 1.242a.93.93 0 0 1 .344.794.91.91 0 0 1-.106.354.948.948 0 0 1-.238.287L2.175 11.96a.466.466 0 0 0-.156.23.449.449 0 0 0 .005.274 7.933 7.933 0 0 0 1.757 2.898.522.522 0 0 0 .531.127l1.893-.646a1.027 1.027 0 0 1 .824.07c.124.069.23.162.313.274.083.112.139.24.165.374l.358 1.889a.482.482 0 0 0 .383.375 8.84 8.84 0 0 0 3.505 0 .493.493 0 0 0 .25-.132.46.46 0 0 0 .132-.243l.361-1.889a.926.926 0 0 1 .166-.373.974.974 0 0 1 .313-.273 1.018 1.018 0 0 1 .823-.071l1.89.645a.511.511 0 0 0 .532-.127 7.935 7.935 0 0 0 1.756-2.898.448.448 0 0 0 .005-.274.466.466 0 0 0-.156-.23l-1.533-1.242a.943.943 0 0 1-.257-.322.906.906 0 0 1 .257-1.113l1.533-1.242c.075-.06.13-.14.156-.23a.448.448 0 0 0-.005-.274 7.933 7.933 0 0 0-1.759-2.898.521.521 0 0 0-.531-.127l-1.892.646a1.44 1.44 0 0 1-.154.04m-9.21.773 1.304.444a2.474 2.474 0 0 0 1.986-.172c.298-.165.556-.39.755-.66.198-.27.334-.577.396-.902l.246-1.293a7.252 7.252 0 0 1 1.76 0l.248 1.293c.062.325.197.633.396.903.198.27.455.495.754.66a2.471 2.471 0 0 0 1.987.171l1.301-.446c.357.447.649.929.877 1.445l-1.049.85c-.264.213-.475.48-.62.78a2.194 2.194 0 0 0 0 1.914c.145.3.356.566.62.78l1.05.849a6.61 6.61 0 0 1-.876 1.446l-1.303-.446a2.473 2.473 0 0 0-1.986.173c-.299.165-.556.39-.755.66-.198.269-.334.576-.396.901l-.248 1.294a7.255 7.255 0 0 1-1.76 0l-.246-1.294a2.229 2.229 0 0 0-.396-.902 2.342 2.342 0 0 0-.754-.66 2.47 2.47 0 0 0-1.987-.171l-1.299.445a6.61 6.61 0 0 1-.876-1.446l1.049-.851c.263-.213.474-.48.62-.78a2.194 2.194 0 0 0 0-1.913 2.286 2.286 0 0 0-.62-.779l-1.05-.85c.23-.516.521-.998.876-1.445"/></mask><path d="M10 7.333c-.739 0-1.446.281-1.968.781a2.613 2.613 0 0 0-.815 1.887c0 .707.293 1.386.815 1.886s1.23.781 1.967.781c.738 0 1.446-.28 1.967-.781.522-.5.815-1.179.815-1.886 0-.708-.293-1.386-.815-1.887A2.844 2.844 0 0 0 10 7.333Zm-1.392 2.668c0-.354.147-.693.408-.944.26-.25.614-.39.983-.39.37 0 .723.14.984.39.26.25.407.59.407.944 0 .353-.146.693-.407.943-.26.25-.615.39-.984.39s-.722-.14-.983-.39-.408-.59-.408-.943Zm5.033-4.805c-.256.045-.52-.01-.736-.151a.945.945 0 0 1-.41-.605l-.362-1.889a.461.461 0 0 0-.13-.244.493.493 0 0 0-.252-.132 8.842 8.842 0 0 0-3.504 0 .493.493 0 0 0-.252.132.46.46 0 0 0-.131.244l-.36 1.89a.927.927 0 0 1-.166.373.974.974 0 0 1-.313.273 1.018 1.018 0 0 1-.823.07l-1.89-.645a.521.521 0 0 0-.532.127 7.933 7.933 0 0 0-1.756 2.898.449.449 0 0 0-.005.274c.027.09.08.17.156.23l1.533 1.242a.93.93 0 0 1 .344.794.91.91 0 0 1-.106.354.948.948 0 0 1-.238.287L2.175 11.96a.466.466 0 0 0-.156.23.449.449 0 0 0 .005.274 7.933 7.933 0 0 0 1.757 2.898.522.522 0 0 0 .531.127l1.893-.646a1.027 1.027 0 0 1 .824.07c.124.069.23.162.313.274.083.112.139.24.165.374l.358 1.889a.482.482 0 0 0 .383.375 8.84 8.84 0 0 0 3.505 0 .493.493 0 0 0 .25-.132.46.46 0 0 0 .132-.243l.361-1.889a.926.926 0 0 1 .166-.373.974.974 0 0 1 .313-.273 1.018 1.018 0 0 1 .823-.071l1.89.645a.511.511 0 0 0 .532-.127 7.935 7.935 0 0 0 1.756-2.898.448.448 0 0 0 .005-.274.466.466 0 0 0-.156-.23l-1.533-1.242a.943.943 0 0 1-.257-.322.906.906 0 0 1 .257-1.113l1.533-1.242c.075-.06.13-.14.156-.23a.448.448 0 0 0-.005-.274 7.933 7.933 0 0 0-1.759-2.898.521.521 0 0 0-.531-.127l-1.892.646a1.44 1.44 0 0 1-.154.04m-9.21.773 1.304.444a2.474 2.474 0 0 0 1.986-.172c.298-.165.556-.39.755-.66.198-.27.334-.577.396-.902l.246-1.293a7.252 7.252 0 0 1 1.76 0l.248 1.293c.062.325.197.633.396.903.198.27.455.495.754.66a2.471 2.471 0 0 0 1.987.171l1.301-.446c.357.447.649.929.877 1.445l-1.049.85c-.264.213-.475.48-.62.78a2.194 2.194 0 0 0 0 1.914c.145.3.356.566.62.78l1.05.849a6.61 6.61 0 0 1-.876 1.446l-1.303-.446a2.473 2.473 0 0 0-1.986.173c-.299.165-.556.39-.755.66-.198.269-.334.576-.396.901l-.248 1.294a7.255 7.255 0 0 1-1.76 0l-.246-1.294a2.229 2.229 0 0 0-.396-.902 2.342 2.342 0 0 0-.754-.66 2.47 2.47 0 0 0-1.987-.171l-1.299.445a6.61 6.61 0 0 1-.876-1.446l1.049-.851c.263-.213.474-.48.62-.78a2.194 2.194 0 0 0 0-1.913 2.286 2.286 0 0 0-.62-.779l-1.05-.85c.23-.516.521-.998.876-1.445" fill="#404040"/><path d="M10 7.333v-.1.1Zm-2.783 2.668h-.1.1ZM10 8.667v.1-.1Zm2.496-4.227-.098.019.098-.019Zm-.362-1.889-.098.019.098-.019Zm-.382-.376-.02.098.02-.098Zm-3.504 0 .019.098-.02-.098Zm-.383.376.098.02V2.57l-.098-.019Zm-.36 1.89.098.018-.098-.019Zm-1.302.717-.033.094.033-.094Zm-1.89-.646.032-.095h-.001l-.032.095Zm-.532.127-.072-.07v.001l.072.069ZM2.024 7.537l.095.033-.095-.033Zm.15.504.064-.077-.063.077Zm1.534 1.242-.063.078.063-.078Zm.112.108-.076.065.002.002.074-.067Zm.187.32-.094.033.094-.032Zm-.3 1.007-.062-.078.063.078ZM2.176 11.96l.062.078-.062-.078Zm-.15.504.094-.032-.095.032Zm1.756 2.898-.072.07.072-.07Zm.532.127.031.095h.001l-.032-.095Zm1.892-.646.032.095-.032-.095Zm1.302.718.098-.018-.098.018Zm.358 1.889-.098.018.098-.018Zm.383.375.02-.098-.02.098Zm3.505 0-.019-.099.02.099Zm.382-.375-.099-.02v.001l.099.019Zm.361-1.889-.098-.02v.001l.098.02Zm1.302-.717.033-.095-.033.095Zm1.89.645-.032.095.033-.095Zm.532-.127.073.07-.073-.07Zm1.756-2.898-.095-.032.095.032Zm.005-.274.096-.029-.096.029Zm-.156-.23-.063.078.063-.078Zm-1.533-1.242.063-.078-.063.078Zm-.348-.717h-.1.1Zm.348-.718.063.078-.063-.078Zm1.533-1.242-.062-.078.062.078Zm.156-.23.096.029-.096-.029Zm-.005-.274-.095.032.095-.032ZM16.217 4.64l.073-.069-.073.069Zm-.531-.127-.032-.095.032.095Zm-1.892.646.03.095h.002l-.032-.095Zm-8.06 1.257.033-.094-.033.094Zm3.137-1.734.098.02-.098-.02Zm.246-1.293-.012-.1-.072.01-.014.071.098.019Zm1.76 0 .098-.02-.013-.07-.073-.01-.012.1Zm.248 1.293-.099.02.099-.02Zm3.136 1.734.033.095-.033-.095Zm1.303-.446.078-.063-.044-.055-.067.023.032.095Zm.876 1.445.063.078.06-.048-.032-.07-.091.04Zm-1.049.85.063.078-.063-.078Zm-.841 1.737h.1-.1Zm.841 1.736-.063.078.063-.078Zm1.05.85.092.04.03-.07-.059-.048-.063.078Zm-.876 1.446-.032.094.066.023.044-.055-.078-.062Zm-1.303-.446.032-.095-.033.095Zm-3.137 1.734-.098-.019.098.019Zm-.248 1.294.012.1.073-.01.013-.071-.098-.02Zm-1.76 0-.098.019.014.071.072.01.012-.1Zm-.246-1.294.098-.019-.098.019Zm-3.137-1.734-.032-.095.032.095Zm-1.299.446-.078.062.044.055.067-.023-.033-.094Zm-.876-1.446-.063-.078-.06.048.031.07.092-.04Zm1.049-.851-.063-.078.063.078ZM5.448 10h-.1.1Zm-.84-1.736.063-.078-.063.078Zm-1.05-.85-.092-.04-.031.07.06.048.062-.078Zm6.441-.181c-.763 0-1.495.29-2.036.81l.138.144A2.744 2.744 0 0 1 10 7.433v-.2Zm-2.036.81A2.713 2.713 0 0 0 7.117 10h.2c0-.68.282-1.333.784-1.814l-.138-.145ZM7.117 10c0 .735.305 1.44.846 1.958l.138-.144A2.513 2.513 0 0 1 7.317 10h-.2Zm.846 1.958c.54.518 1.273.81 2.036.81v-.2a2.744 2.744 0 0 1-1.898-.754l-.138.144Zm2.036.81c.763 0 1.496-.292 2.037-.81l-.139-.144a2.744 2.744 0 0 1-1.898.753v.2Zm2.037-.81c.54-.519.845-1.223.845-1.958h-.2c0 .68-.281 1.332-.784 1.814l.139.144Zm.845-1.958c0-.736-.304-1.44-.845-1.959l-.139.145c.503.481.784 1.134.784 1.814h.2Zm-.845-1.959a2.944 2.944 0 0 0-2.037-.809v.2c.713 0 1.396.272 1.898.754l.139-.145Zm-3.328 1.959c0-.326.135-.64.377-.871l-.139-.145c-.28.269-.438.634-.438 1.016h.2Zm.377-.871c.242-.232.57-.363.914-.363v-.2c-.394 0-.773.15-1.053.418l.139.145Zm.914-.363c.344 0 .673.13.915.363l.138-.145A1.522 1.522 0 0 0 10 8.567v.2Zm.915.363c.241.231.376.545.376.87h.2c0-.381-.158-.746-.438-1.015l-.138.145Zm.376.87c0 .326-.135.64-.376.871l.138.145c.28-.269.438-.634.438-1.015h-.2Zm-.376.871c-.242.232-.571.363-.915.363v.2c.394 0 .773-.15 1.053-.418l-.138-.145Zm-.915.363c-.343 0-.672-.13-.914-.363l-.139.145c.28.268.66.418 1.053.418v-.2Zm-.914-.363a1.206 1.206 0 0 1-.377-.87h-.2c0 .381.158.746.438 1.015l.139-.145Zm4.539-5.773a.922.922 0 0 1-.663-.137l-.11.167c.236.156.526.216.807.167l-.034-.197Zm-.663-.137a.845.845 0 0 1-.368-.54l-.196.038c.053.273.217.513.453.67l.11-.168Zm-.368-.54-.362-1.888-.196.037.362 1.889.196-.038Zm-.361-1.888a.56.56 0 0 0-.16-.297l-.14.142a.36.36 0 0 1 .103.192l.197-.037Zm-.16-.297a.593.593 0 0 0-.302-.159l-.038.196a.393.393 0 0 1 .2.105l.14-.142Zm-.301-.159a8.942 8.942 0 0 0-3.544 0l.04.196a8.742 8.742 0 0 1 3.464 0l.04-.196Zm-3.544 0a.593.593 0 0 0-.302.159l.14.142a.393.393 0 0 1 .2-.105l-.038-.196Zm-.302.159a.56.56 0 0 0-.16.297l.197.037a.36.36 0 0 1 .103-.192l-.14-.142Zm-.16.297-.36 1.888.197.038.36-1.889-.196-.037Zm-.36 1.888a.827.827 0 0 1-.147.333l.16.12c.092-.124.155-.265.184-.415l-.196-.038Zm-.147.333A.874.874 0 0 1 6.977 5l.096.175c.137-.075.254-.177.346-.3l-.16-.12ZM6.977 5a.918.918 0 0 1-.364.11l.017.2c.156-.014.307-.06.443-.135L6.977 5Zm-.364.11a.927.927 0 0 1-.379-.046l-.065.19c.148.05.305.069.461.055l-.017-.199Zm-.379-.046-1.89-.646-.065.19 1.89.645.065-.189Zm-1.891-.646a.621.621 0 0 0-.34-.015l.046.195a.421.421 0 0 1 .23.01l.064-.19Zm-.34-.015a.606.606 0 0 0-.295.167l.144.14a.406.406 0 0 1 .197-.112l-.046-.195Zm-.296.168A8.033 8.033 0 0 0 1.93 7.505l.19.064a7.833 7.833 0 0 1 1.733-2.861l-.146-.138ZM1.93 7.505a.548.548 0 0 0-.007.335l.192-.057a.348.348 0 0 1 .004-.213l-.19-.065Zm-.007.335c.033.11.099.207.19.28l.124-.157a.366.366 0 0 1-.122-.18l-.192.057Zm.189.279 1.533 1.242.126-.156-1.533-1.241-.126.155Zm1.534 1.243c.036.029.07.06.098.094l.152-.13a.893.893 0 0 0-.127-.122l-.123.158Zm.1.096a.83.83 0 0 1 .167.286l.19-.064a1.03 1.03 0 0 0-.208-.355l-.15.133Zm.167.286a.803.803 0 0 1 .039.325l.2.016a1.002 1.002 0 0 0-.05-.405l-.19.064Zm.039.325a.81.81 0 0 1-.094.314l.176.095a1.01 1.01 0 0 0 .117-.393l-.199-.016Zm-.094.314a.848.848 0 0 1-.213.258l.126.155c.108-.088.198-.196.263-.318l-.176-.095Zm-.213.258-1.533 1.241.126.156 1.533-1.242-.126-.155Zm-1.533 1.24a.566.566 0 0 0-.19.28l.193.057a.365.365 0 0 1 .122-.18l-.125-.156Zm-.19.28a.549.549 0 0 0 .008.336l.189-.065a.348.348 0 0 1-.004-.214l-.192-.057Zm.008.335a8.033 8.033 0 0 0 1.779 2.935l.145-.137a7.833 7.833 0 0 1-1.735-2.862l-.19.064Zm1.78 2.936c.08.082.182.14.294.167l.047-.195a.405.405 0 0 1-.198-.111l-.144.139Zm.294.167c.113.027.23.021.34-.015l-.063-.19a.421.421 0 0 1-.23.01l-.047.195Zm.341-.015 1.892-.646-.065-.19-1.892.647.065.189Zm1.892-.646a.924.924 0 0 1 .38-.047l.016-.2a1.126 1.126 0 0 0-.461.058l.065.19Zm.38-.047c.128.011.252.049.363.11l.097-.175a1.115 1.115 0 0 0-.444-.134l-.017.2Zm.363.11a.87.87 0 0 1 .282.245l.16-.119a1.072 1.072 0 0 0-.345-.301L6.98 15Zm.282.245c.073.1.123.214.146.334l.197-.038a1.024 1.024 0 0 0-.183-.415l-.16.12Zm.146.334.36 1.888.196-.037-.36-1.889-.196.038Zm.36 1.889a.582.582 0 0 0 .46.454l.04-.196a.382.382 0 0 1-.304-.296l-.197.038Zm.46.454a8.946 8.946 0 0 0 3.545 0l-.04-.196a8.742 8.742 0 0 1-3.465 0l-.04.196Zm3.545 0a.593.593 0 0 0 .301-.158l-.14-.143a.393.393 0 0 1-.2.104l.039.197Zm.301-.158a.56.56 0 0 0 .159-.297l-.197-.037a.36.36 0 0 1-.102.19l.14.144Zm.159-.296.361-1.89-.196-.037-.362 1.889.197.038Zm.361-1.889a.826.826 0 0 1 .148-.333l-.16-.119a1.027 1.027 0 0 0-.184.414l.196.038Zm.148-.333c.074-.1.17-.183.281-.245l-.096-.175a1.073 1.073 0 0 0-.346.301l.16.12Zm.281-.245a.917.917 0 0 1 .364-.11l-.017-.2c-.156.014-.307.06-.443.135l.096.175Zm.364-.11a.927.927 0 0 1 .379.046l.065-.19a1.127 1.127 0 0 0-.461-.055l.017.2Zm.379.046 1.89.646.065-.19-1.89-.645-.065.19Zm1.89.646a.61.61 0 0 0 .636-.153l-.144-.138a.41.41 0 0 1-.427.101l-.065.19Zm.637-.153a8.033 8.033 0 0 0 1.777-2.935l-.19-.064a7.832 7.832 0 0 1-1.732 2.862l.145.137Zm1.777-2.934a.55.55 0 0 0 .007-.336l-.192.057c.021.07.02.145-.004.214l.19.065Zm.007-.336a.566.566 0 0 0-.19-.28l-.124.157c.06.047.102.11.122.18l.192-.057Zm-.189-.279-1.533-1.242-.125.156 1.532 1.242.126-.156Zm-1.533-1.242a.842.842 0 0 1-.23-.287l-.18.087c.067.138.164.259.285.356l.125-.156Zm-.23-.287a.806.806 0 0 1-.081-.352h-.2c0 .152.035.302.101.439l.18-.087ZM16.044 10c0-.122.028-.242.081-.352l-.18-.088a1.005 1.005 0 0 0-.101.44h.2Zm.081-.352a.843.843 0 0 1 .23-.288l-.125-.156c-.12.097-.218.219-.285.356l.18.088Zm.23-.288 1.533-1.242-.126-.155-1.532 1.241.125.156Zm1.533-1.242a.565.565 0 0 0 .19-.28l-.193-.056a.365.365 0 0 1-.122.18l.125.156Zm.19-.28a.55.55 0 0 0-.008-.334l-.189.065c.024.069.025.143.004.213l.192.057Zm-.008-.334a8.034 8.034 0 0 0-1.78-2.935l-.145.138a7.833 7.833 0 0 1 1.736 2.861l.19-.064Zm-1.78-2.936a.606.606 0 0 0-.295-.167l-.047.195a.406.406 0 0 1 .197.111l.144-.139Zm-.295-.167a.621.621 0 0 0-.34.015l.063.19a.421.421 0 0 1 .23-.01l.046-.195Zm-.341.015-1.892.646.064.19 1.892-.646-.064-.19Zm-1.89.645a1.342 1.342 0 0 1-.144.038l.04.196c.055-.012.11-.026.165-.043l-.061-.19ZM4.399 6.066l1.303.444.065-.19-1.304-.443-.064.189Zm1.303.444c.338.115.697.159 1.054.128l-.018-.2c-.329.03-.66-.011-.971-.117l-.065.189Zm1.054.128a2.552 2.552 0 0 0 1.013-.308l-.097-.175a2.352 2.352 0 0 1-.934.284l.018.199Zm1.013-.308c.31-.172.579-.406.786-.687l-.161-.119c-.19.258-.436.473-.722.631l.097.175Zm.786-.687c.207-.282.349-.603.414-.943l-.196-.037c-.06.31-.189.603-.379.86l.161.12Zm.414-.943.247-1.294-.197-.037-.246 1.294.196.037Zm.16-1.213c.577-.07 1.16-.07 1.736 0l.024-.199a7.351 7.351 0 0 0-1.784 0l.025.199Zm1.65-.08.247 1.293.197-.037-.248-1.294-.196.038Zm.247 1.293c.066.34.207.662.414.943l.161-.118a2.129 2.129 0 0 1-.378-.862l-.197.037Zm.414.943c.207.282.476.517.787.688l.096-.175a2.243 2.243 0 0 1-.722-.631l-.161.118Zm.787.688c.31.172.656.277 1.013.308l.017-.2a2.349 2.349 0 0 1-.934-.283l-.097.175Zm1.013.308a2.57 2.57 0 0 0 1.054-.129l-.065-.19a2.371 2.371 0 0 1-.972.12l-.017.199Zm1.054-.129 1.302-.447-.065-.189-1.302.447.065.189Zm1.191-.48c.351.442.639.916.863 1.425l.183-.081a6.678 6.678 0 0 0-.89-1.468l-.156.125Zm.892 1.307-1.049.85.126.155 1.049-.85-.126-.155Zm-1.049.85c-.275.222-.496.5-.648.813l.18.087c.14-.287.342-.541.594-.745l-.126-.156ZM14.68 9c-.151.313-.23.655-.23 1h.2c0-.315.072-.627.21-.913L14.68 9Zm-.23 1c0 .347.079.688.23 1.002l.18-.088a2.094 2.094 0 0 1-.21-.913h-.2Zm.23 1.002c.152.313.373.59.648.813l.126-.155a2.187 2.187 0 0 1-.594-.746l-.18.088Zm.648.813 1.05.85.126-.156-1.05-.85-.126.156Zm1.022.731a6.51 6.51 0 0 1-.863 1.424l.156.125a6.71 6.71 0 0 0 .89-1.468l-.183-.08Zm-.753 1.392-1.303-.446-.065.19 1.304.445.064-.189Zm-1.303-.446a2.575 2.575 0 0 0-1.054-.127l.018.199c.329-.029.66.012.971.118l.065-.19Zm-1.054-.127a2.553 2.553 0 0 0-1.013.307l.097.175c.286-.158.604-.254.934-.283l-.018-.2Zm-1.013.307c-.31.172-.579.406-.786.688l.16.119c.19-.258.437-.474.723-.632l-.097-.175Zm-.786.688a2.331 2.331 0 0 0-.415.942l.197.038c.06-.31.189-.604.379-.861l-.161-.12Zm-.415.942-.247 1.294.196.038.248-1.294-.197-.038Zm-.161 1.213c-.576.071-1.16.071-1.735 0l-.025.2a7.353 7.353 0 0 0 1.784 0l-.024-.2Zm-1.65.081-.246-1.294-.196.038.246 1.294.197-.038Zm-.246-1.294a2.33 2.33 0 0 0-.413-.943l-.161.119c.19.258.319.552.378.862l.196-.038Zm-.413-.943a2.443 2.443 0 0 0-.787-.688l-.096.175c.286.158.532.374.722.632l.16-.119Zm-.787-.688a2.548 2.548 0 0 0-1.013-.307l-.017.199c.329.028.648.125.934.283l.096-.175Zm-1.013-.307a2.571 2.571 0 0 0-1.054.128l.065.19c.31-.107.643-.148.972-.12l.017-.198Zm-1.054.128-1.3.446.066.19 1.299-.446-.065-.19Zm-1.189.478a6.507 6.507 0 0 1-.863-1.424l-.183.081c.231.523.53 1.016.89 1.468l.156-.125Zm-.891-1.306 1.049-.85-.126-.156-1.05.851.127.155Zm1.049-.85c.274-.223.495-.5.647-.814l-.18-.087c-.139.287-.341.54-.593.745l.126.155ZM5.318 11c.151-.313.23-.654.23-1h-.2c0 .315-.072.627-.21.913l.18.087Zm.23-1c0-.346-.079-.687-.23-1l-.18.087c.138.286.21.598.21.913h.2Zm-.23-1a2.386 2.386 0 0 0-.647-.814l-.126.156c.252.204.454.458.593.745l.18-.088Zm-.648-.814-1.05-.85-.126.156 1.05.85.126-.156Zm-1.021-.73c.226-.51.514-.985.863-1.425l-.157-.124c-.36.453-.656.942-.889 1.467l.183.081Z" fill="#fff" mask="url(#oa)"/></symbol><symbol fill="none" viewBox="0 0 20 20" id="tool_with_arrows" xmlns="http://www.w3.org/2000/svg"><path d="M11.266 2.146a2.893 2.893 0 0 0-2.138 1.8 2.893 2.893 0 0 0 .415 2.802l-1.961 5.443a2.894 2.894 0 0 0-1.662 4.642l.006.006a.731.731 0 0 0 1.248-.22l.542-1.487.736.268-.542 1.486a.73.73 0 0 0 .822.968h.003a2.893 2.893 0 0 0 2.138-1.8 2.89 2.89 0 0 0-.396-2.777L12.453 7.8a2.888 2.888 0 0 0 2.224-3.294 2.898 2.898 0 0 0-.596-1.34l-.005-.006a.732.732 0 0 0-1.25.22l-.541 1.487-.736-.268.542-1.486a.73.73 0 0 0-.822-.968h-.003Zm-.115.951-.492 1.35a.725.725 0 0 0 .436.934l1.036.377a.726.726 0 0 0 .935-.436l.491-1.35a2.005 2.005 0 0 1-1.489 2.995.444.444 0 0 0-.364.29l-2.148 5.957a.445.445 0 0 0 .09.45 2.004 2.004 0 0 1-.071 2.785 2.003 2.003 0 0 1-.724.453l.49-1.349a.726.726 0 0 0-.435-.934l-1.035-.377a.729.729 0 0 0-.935.436l-.492 1.349A2.005 2.005 0 0 1 7.96 13.03a.444.444 0 0 0 .37-.291l2.136-5.931a.444.444 0 0 0-.094-.455 2.005 2.005 0 0 1-.415-2.088 2.005 2.005 0 0 1 1.194-1.168" fill="currentColor"/><path d="m3.628 6.632.036-.037.036.037.503.518.033.034-.033.035-2.295 2.364 2.295 2.364.033.035-.033.035-.503.518-.036.037-.036-.037-2.83-2.917-.034-.035.033-.034 2.831-2.917ZM16.372 12.535l-.036.037-.036-.037-.503-.518-.033-.035.034-.035 2.294-2.364-2.294-2.364-.034-.035.034-.034.502-.518.036-.037.036.037 2.83 2.916.034.035-.033.035-2.831 2.917Z" fill="currentColor" stroke="currentColor" stroke-width=".1"/></symbol><symbol fill="none" viewBox="0 0 24 24" id="user" xmlns="http://www.w3.org/2000/svg"><path d="M5.75 18.1v.15h12.5V17c0-.137-.08-.265-.179-.375a2.288 2.288 0 0 0-.423-.348c-.352-.235-.847-.482-1.43-.707-1.167-.45-2.71-.82-4.218-.82-1.507 0-3.05.37-4.218.82-.583.225-1.078.472-1.43.707a2.29 2.29 0 0 0-.423.348c-.098.11-.179.238-.179.375v1.1ZM12 4.15a3.85 3.85 0 1 1 0 7.7 3.85 3.85 0 0 1 0-7.7Zm0 1.7a2.15 2.15 0 1 0 0 4.3 2.15 2.15 0 0 0 0-4.3Zm0 7.3c1.316 0 3.297.329 4.946.988.823.33 1.555.738 2.078 1.22.521.483.826 1.03.826 1.642v2.85H4.15V17c0-.613.304-1.16.826-1.641.523-.483 1.255-.892 2.078-1.221 1.649-.659 3.63-.988 4.946-.988Z" fill="#0076F5" stroke="#F2F8FE" stroke-width=".3"/></symbol></svg>